EBGaramondVF-DisplayExpanded_Regular.ufo
<glyph name="numbersign" format="1">
  <advance width="654"/>
  <unicode hex="0023"/>
  <outline>
    <contour>
      <point x="121" y="-79" type="curve" smooth="yes"/>
      <point x="125" y="-79"/>
      <point x="127" y="-77"/>
      <point x="129" y="-70" type="curve" smooth="yes"/>
      <point x="174" y="112" type="line"/>
      <point x="380" y="118" type="line"/>
      <point x="336" y="-57" type="line"/>
      <point x="335" y="-64" type="line" smooth="yes"/>
      <point x="335" y="-67"/>
      <point x="336" y="-68"/>
      <point x="338" y="-68" type="curve" smooth="yes"/>
      <point x="342" y="-68"/>
      <point x="345" y="-66"/>
      <point x="346" y="-60" type="curve" smooth="yes"/>
      <point x="391" y="120" type="line"/>
      <point x="513" y="123" type="line" smooth="yes"/>
      <point x="535" y="124"/>
      <point x="545" y="164"/>
      <point x="545" y="174" type="curve" smooth="yes"/>
      <point x="545" y="182"/>
      <point x="539" y="187"/>
      <point x="531" y="187" type="curve"/>
      <point x="407" y="184" type="line"/>
      <point x="440" y="320" type="line"/>
      <point x="560" y="323" type="line" smooth="yes"/>
      <point x="583" y="324"/>
      <point x="592" y="365"/>
      <point x="592" y="376" type="curve" smooth="yes"/>
      <point x="592" y="383"/>
      <point x="586" y="387"/>
      <point x="579" y="387" type="curve"/>
      <point x="456" y="384" type="line"/>
      <point x="498" y="558" type="line"/>
      <point x="499" y="561"/>
      <point x="499" y="563"/>
      <point x="499" y="565" type="curve" smooth="yes"/>
      <point x="499" y="568"/>
      <point x="498" y="570"/>
      <point x="495" y="570" type="curve" smooth="yes"/>
      <point x="491" y="570"/>
      <point x="489" y="569"/>
      <point x="487" y="559" type="curve" smooth="yes"/>
      <point x="444" y="382" type="line"/>
      <point x="239" y="376" type="line"/>
      <point x="279" y="542" type="line"/>
      <point x="280" y="547"/>
      <point x="281" y="551"/>
      <point x="281" y="554" type="curve" smooth="yes"/>
      <point x="281" y="557"/>
      <point x="280" y="559"/>
      <point x="276" y="559" type="curve" smooth="yes"/>
      <point x="273" y="559"/>
      <point x="271" y="556"/>
      <point x="269" y="548" type="curve" smooth="yes"/>
      <point x="227" y="374" type="line"/>
      <point x="96" y="371" type="line" smooth="yes"/>
      <point x="74" y="370"/>
      <point x="71" y="330"/>
      <point x="71" y="320" type="curve" smooth="yes"/>
      <point x="71" y="312"/>
      <point x="79" y="307"/>
      <point x="86" y="307" type="curve"/>
      <point x="211" y="310" type="line"/>
      <point x="178" y="174" type="line"/>
      <point x="49" y="171" type="line" smooth="yes"/>
      <point x="27" y="170"/>
      <point x="24" y="130"/>
      <point x="24" y="119" type="curve" smooth="yes"/>
      <point x="24" y="112"/>
      <point x="31" y="107"/>
      <point x="38" y="107" type="curve"/>
      <point x="163" y="110" type="line"/>
      <point x="119" y="-64" type="line"/>
      <point x="117" y="-75" type="line" smooth="yes"/>
      <point x="117" y="-78"/>
      <point x="118" y="-79"/>
    </contour>
    <contour>
      <point x="190" y="176" type="line"/>
      <point x="223" y="312" type="line"/>
      <point x="428" y="318" type="line"/>
      <point x="396" y="182" type="line"/>
    </contour>
  </outline>
</glyph>
<glyph name="dollar" format="1">
  <advance width="610"/>
  <unicode hex="0024"/>
  <outline>
    <contour>
      <point x="255" y="-82" type="curve" smooth="yes"/>
      <point x="257" y="-82"/>
      <point x="260" y="-78"/>
      <point x="262" y="-72" type="curve" smooth="yes"/>
      <point x="271" y="2" type="line" smooth="yes"/>
      <point x="271" y="7"/>
      <point x="275" y="9"/>
      <point x="280" y="9" type="curve" smooth="yes"/>
      <point x="443" y="7"/>
      <point x="566" y="80"/>
      <point x="566" y="177" type="curve" smooth="yes"/>
      <point x="566" y="250"/>
      <point x="514" y="290"/>
      <point x="344" y="348" type="curve"/>
      <point x="327" y="354"/>
      <point x="329" y="356"/>
      <point x="330" y="364" type="curve" smooth="yes"/>
      <point x="363" y="571" type="line"/>
      <point x="363" y="573"/>
      <point x="365" y="576"/>
      <point x="368" y="576" type="curve" smooth="yes"/>
      <point x="436" y="582"/>
      <point x="499" y="524"/>
      <point x="526" y="461" type="curve" smooth="yes"/>
      <point x="528" y="455"/>
      <point x="537" y="448"/>
      <point x="546" y="448" type="curve" smooth="yes"/>
      <point x="552" y="448"/>
      <point x="556" y="451"/>
      <point x="556" y="459" type="curve" smooth="yes"/>
      <point x="556" y="485"/>
      <point x="541" y="520"/>
      <point x="531" y="544" type="curve" smooth="yes"/>
      <point x="526" y="552"/>
      <point x="516" y="561"/>
      <point x="502" y="564" type="curve" smooth="yes"/>
      <point x="477" y="571"/>
      <point x="426" y="586"/>
      <point x="368" y="584" type="curve" smooth="yes"/>
      <point x="366" y="584"/>
      <point x="366" y="588"/>
      <point x="367" y="591" type="curve" smooth="yes"/>
      <point x="367" y="600"/>
      <point x="373" y="643"/>
      <point x="374" y="649" type="curve"/>
      <point x="374" y="655"/>
      <point x="373" y="658"/>
      <point x="370" y="658" type="curve" smooth="yes"/>
      <point x="366" y="658"/>
      <point x="365" y="657"/>
      <point x="364" y="645" type="curve" smooth="yes"/>
      <point x="358" y="590" type="line" smooth="yes"/>
      <point x="357" y="587"/>
      <point x="356" y="584"/>
      <point x="354" y="584" type="curve" smooth="yes"/>
      <point x="167" y="585"/>
      <point x="81" y="510"/>
      <point x="81" y="428" type="curve" smooth="yes"/>
      <point x="81" y="363"/>
      <point x="162" y="314"/>
      <point x="290" y="271" type="curve" smooth="yes"/>
      <point x="302" y="266"/>
      <point x="303" y="260"/>
      <point x="302" y="255" type="curve" smooth="yes"/>
      <point x="266" y="18" type="line" smooth="yes"/>
      <point x="265" y="14"/>
      <point x="261" y="14"/>
      <point x="257" y="15" type="curve"/>
      <point x="174" y="26"/>
      <point x="107" y="53"/>
      <point x="80" y="162" type="curve" smooth="yes"/>
      <point x="78" y="167"/>
      <point x="75" y="173"/>
      <point x="69" y="173" type="curve" smooth="yes"/>
      <point x="62" y="173"/>
      <point x="56" y="167"/>
      <point x="56" y="160" type="curve"/>
      <point x="59" y="136"/>
      <point x="60" y="91"/>
      <point x="69" y="67" type="curve" smooth="yes"/>
      <point x="72" y="61"/>
      <point x="80" y="55"/>
      <point x="86" y="50" type="curve" smooth="yes"/>
      <point x="128" y="29"/>
      <point x="194" y="9"/>
      <point x="254" y="10" type="curve" smooth="yes"/>
      <point x="257" y="10"/>
      <point x="262" y="8"/>
      <point x="261" y="2" type="curve"/>
      <point x="251" y="-71" type="line" smooth="yes"/>
      <point x="250" y="-75"/>
      <point x="252" y="-82"/>
    </contour>
    <contour>
      <point x="285" y="14" type="curve"/>
      <point x="278" y="14"/>
      <point x="276" y="15"/>
      <point x="276" y="23" type="curve"/>
      <point x="313" y="262" type="line" smooth="yes"/>
      <point x="314" y="266"/>
      <point x="317" y="269"/>
      <point x="321" y="267" type="curve"/>
      <point x="429" y="234"/>
      <point x="485" y="201"/>
      <point x="485" y="142" type="curve" smooth="yes"/>
      <point x="485" y="74"/>
      <point x="390" y="11"/>
    </contour>
    <contour>
      <point x="309" y="356" type="curve"/>
      <point x="209" y="386"/>
      <point x="160" y="427"/>
      <point x="160" y="459" type="curve" smooth="yes"/>
      <point x="160" y="527"/>
      <point x="243" y="577"/>
      <point x="346" y="575" type="curve"/>
      <point x="352" y="575"/>
      <point x="354" y="572"/>
      <point x="354" y="568" type="curve"/>
      <point x="320" y="359" type="line"/>
      <point x="320" y="355"/>
      <point x="317" y="353"/>
    </contour>
  </outline>
</glyph>
<glyph name="quotesingle" format="1">
  <advance width="205"/>
  <unicode hex="0027"/>
  <outline>
    <contour>
      <point x="77" y="441" type="curve" smooth="yes"/>
      <point x="79" y="441"/>
      <point x="83" y="455"/>
      <point x="88" y="466" type="curve" smooth="yes"/>
      <point x="107" y="506"/>
      <point x="143" y="591"/>
      <point x="143" y="644" type="curve" smooth="yes"/>
      <point x="143" y="661"/>
      <point x="139" y="676"/>
      <point x="128" y="676" type="curve" smooth="yes"/>
      <point x="111" y="676"/>
      <point x="99" y="668"/>
      <point x="82" y="655" type="curve"/>
      <point x="74" y="648"/>
      <point x="62" y="633"/>
      <point x="62" y="619" type="curve" smooth="yes"/>
      <point x="62" y="585"/>
      <point x="72" y="543"/>
      <point x="72" y="522" type="curve" smooth="yes"/>
      <point x="72" y="504"/>
      <point x="74" y="479"/>
      <point x="74" y="464" type="curve"/>
      <point x="74" y="455"/>
      <point x="74" y="441"/>
    </contour>
  </outline>
</glyph>
<glyph name="comma" format="1">
  <advance width="233"/>
  <unicode hex="002C"/>
  <outline>
    <contour>
      <point x="39" y="-147" type="curve" smooth="yes"/>
      <point x="91" y="-147"/>
      <point x="185" y="-80"/>
      <point x="185" y="21" type="curve" smooth="yes"/>
      <point x="185" y="78"/>
      <point x="149" y="119"/>
      <point x="101" y="119" type="curve" smooth="yes"/>
      <point x="71" y="119"/>
      <point x="45" y="101"/>
      <point x="45" y="73" type="curve" smooth="yes"/>
      <point x="45" y="50"/>
      <point x="63" y="34"/>
      <point x="92" y="26" type="curve" smooth="yes"/>
      <point x="114" y="19"/>
      <point x="136" y="0"/>
      <point x="136" y="-32" type="curve" smooth="yes"/>
      <point x="136" y="-86"/>
      <point x="77" y="-137"/>
      <point x="34" y="-139" type="curve" smooth="yes"/>
      <point x="25" y="-139"/>
      <point x="21" y="-141"/>
      <point x="21" y="-143" type="curve" smooth="yes"/>
      <point x="21" y="-145"/>
      <point x="27" y="-147"/>
    </contour>
  </outline>
</glyph>
<glyph name="hyphen" format="1">
  <advance width="383"/>
  <unicode hex="002D"/>
  <outline>
    <contour>
      <point x="49" y="253" type="curve"/>
      <point x="139" y="257"/>
      <point x="226" y="261"/>
      <point x="313" y="265" type="curve" smooth="yes"/>
      <point x="336" y="267"/>
      <point x="343" y="272"/>
      <point x="343" y="275" type="curve" smooth="yes"/>
      <point x="343" y="277"/>
      <point x="337" y="277"/>
      <point x="332" y="277" type="curve"/>
      <point x="242" y="272"/>
      <point x="153" y="268"/>
      <point x="63" y="263" type="curve"/>
      <point x="49" y="263"/>
      <point x="41" y="258"/>
      <point x="41" y="253" type="curve" smooth="yes"/>
      <point x="41" y="253"/>
      <point x="42" y="253"/>
    </contour>
  </outline>
</glyph>
<glyph name="zero" format="1">
  <advance width="692"/>
  <unicode hex="0030"/>
  <outline>
    <contour>
      <point x="339" y="-14" type="curve" smooth="yes"/>
      <point x="553" y="-14"/>
      <point x="643" y="153"/>
      <point x="643" y="292" type="curve" smooth="yes"/>
      <point x="643" y="426"/>
      <point x="550" y="582"/>
      <point x="353" y="582" type="curve" smooth="yes"/>
      <point x="139" y="582"/>
      <point x="49" y="420"/>
      <point x="49" y="279" type="curve" smooth="yes"/>
      <point x="49" y="142"/>
      <point x="142" y="-14"/>
    </contour>
    <contour>
      <point x="366" y="-5" type="curve" smooth="yes"/>
      <point x="216" y="-5"/>
      <point x="142" y="149"/>
      <point x="142" y="296" type="curve" smooth="yes"/>
      <point x="142" y="442"/>
      <point x="189" y="572"/>
      <point x="322" y="572" type="curve" smooth="yes"/>
      <point x="473" y="572"/>
      <point x="551" y="421"/>
      <point x="551" y="274" type="curve" smooth="yes"/>
      <point x="551" y="128"/>
      <point x="500" y="-5"/>
    </contour>
  </outline>
</glyph>
<glyph name="two" format="1">
  <advance width="692"/>
  <unicode hex="0032"/>
  <outline>
    <contour>
      <point x="606" y="-3" type="curve" smooth="yes"/>
      <point x="616" y="-3"/>
      <point x="631" y="0"/>
      <point x="637" y="22" type="curve" smooth="yes"/>
      <point x="650" y="73"/>
      <point x="672" y="146"/>
      <point x="672" y="156" type="curve" smooth="yes"/>
      <point x="672" y="161"/>
      <point x="672" y="169"/>
      <point x="666" y="169" type="curve" smooth="yes"/>
      <point x="662" y="169"/>
      <point x="660" y="165"/>
      <point x="657" y="155" type="curve" smooth="yes"/>
      <point x="642" y="92"/>
      <point x="627" y="70"/>
      <point x="560" y="68" type="curve" smooth="yes"/>
      <point x="450" y="66"/>
      <point x="384" y="65"/>
      <point x="330" y="65" type="curve" smooth="yes"/>
      <point x="278" y="65"/>
      <point x="217" y="64"/>
      <point x="186" y="68" type="curve" smooth="yes"/>
      <point x="174" y="69"/>
      <point x="166" y="70"/>
      <point x="166" y="75" type="curve" smooth="yes"/>
      <point x="215" y="119"/>
      <point x="316" y="137"/>
      <point x="382" y="175" type="curve" smooth="yes"/>
      <point x="500" y="263"/>
      <point x="585" y="345"/>
      <point x="585" y="453" type="curve" smooth="yes"/>
      <point x="585" y="518"/>
      <point x="501" y="582"/>
      <point x="357" y="582" type="curve" smooth="yes"/>
      <point x="196" y="582"/>
      <point x="113" y="493"/>
      <point x="90" y="438" type="curve" smooth="yes"/>
      <point x="88" y="434"/>
      <point x="83" y="428"/>
      <point x="87" y="428" type="curve" smooth="yes"/>
      <point x="93" y="428"/>
      <point x="94" y="434"/>
      <point x="100" y="438" type="curve"/>
      <point x="150" y="492"/>
      <point x="231" y="519"/>
      <point x="320" y="519" type="curve" smooth="yes"/>
      <point x="432" y="519"/>
      <point x="493" y="472"/>
      <point x="493" y="409" type="curve" smooth="yes"/>
      <point x="493" y="323"/>
      <point x="420" y="237"/>
      <point x="299" y="161" type="curve" smooth="yes"/>
      <point x="57" y="26" type="line" smooth="yes"/>
      <point x="49" y="20"/>
      <point x="46" y="19"/>
      <point x="46" y="14" type="curve" smooth="yes"/>
      <point x="46" y="8"/>
      <point x="67" y="-2"/>
      <point x="74" y="-2" type="curve" smooth="yes"/>
      <point x="102" y="-2"/>
      <point x="334" y="3"/>
      <point x="405" y="3" type="curve" smooth="yes"/>
      <point x="477" y="3"/>
      <point x="577" y="-3"/>
    </contour>
  </outline>
</glyph>
<glyph name="four" format="1">
  <advance width="692"/>
  <unicode hex="0034"/>
  <outline>
    <contour>
      <point x="348" y="-3" type="curve" smooth="yes"/>
      <point x="414" y="-3"/>
      <point x="426" y="2"/>
      <point x="488" y="2" type="curve" smooth="yes"/>
      <point x="545" y="2"/>
      <point x="556" y="-3"/>
      <point x="617" y="-3" type="curve" smooth="yes"/>
      <point x="626" y="-3"/>
      <point x="634" y="0"/>
      <point x="634" y="2" type="curve" smooth="yes"/>
      <point x="634" y="4"/>
      <point x="622" y="7"/>
      <point x="611" y="7" type="curve" smooth="yes"/>
      <point x="542" y="6"/>
      <point x="528" y="16"/>
      <point x="528" y="45" type="curve" smooth="yes"/>
      <point x="528" y="172" type="line" smooth="yes"/>
      <point x="528" y="173"/>
      <point x="539" y="177"/>
      <point x="546" y="178" type="curve"/>
      <point x="558" y="179"/>
      <point x="573" y="180"/>
      <point x="590" y="180" type="curve" smooth="yes"/>
      <point x="612" y="180"/>
      <point x="637" y="179"/>
      <point x="658" y="179" type="curve" smooth="yes"/>
      <point x="664" y="179"/>
      <point x="688" y="176"/>
      <point x="688" y="192" type="curve" smooth="yes"/>
      <point x="688" y="201"/>
      <point x="681" y="205"/>
      <point x="672" y="205" type="curve"/>
      <point x="642" y="204"/>
      <point x="616" y="203"/>
      <point x="590" y="203" type="curve" smooth="yes"/>
      <point x="573" y="203"/>
      <point x="556" y="203"/>
      <point x="535" y="204" type="curve"/>
      <point x="530" y="204"/>
      <point x="528" y="207"/>
      <point x="528" y="210" type="curve" smooth="yes"/>
      <point x="528" y="333" type="line" smooth="yes"/>
      <point x="528" y="375"/>
      <point x="528" y="397"/>
      <point x="513" y="397" type="curve" smooth="yes"/>
      <point x="502" y="397"/>
      <point x="471" y="395"/>
      <point x="448" y="384" type="curve"/>
      <point x="439" y="380"/>
      <point x="438" y="376"/>
      <point x="438" y="362" type="curve" smooth="yes"/>
      <point x="438" y="213" type="line" smooth="yes"/>
      <point x="438" y="209"/>
      <point x="431" y="205"/>
      <point x="426" y="205" type="curve" smooth="yes"/>
      <point x="91" y="205" type="line" smooth="yes"/>
      <point x="86" y="205"/>
      <point x="88" y="211"/>
      <point x="91" y="214" type="curve" smooth="yes"/>
      <point x="483" y="584" type="line"/>
      <point x="489" y="591"/>
      <point x="491" y="594"/>
      <point x="483" y="594" type="curve" smooth="yes"/>
      <point x="481" y="594" type="line" smooth="yes"/>
      <point x="472" y="594"/>
      <point x="462" y="585"/>
      <point x="449" y="573" type="curve" smooth="yes"/>
      <point x="76" y="219" type="line" smooth="yes"/>
      <point x="57" y="202"/>
      <point x="50" y="193"/>
      <point x="31" y="182" type="curve"/>
      <point x="29" y="181"/>
      <point x="29" y="180"/>
      <point x="29" y="179" type="curve" smooth="yes"/>
      <point x="29" y="175"/>
      <point x="36" y="169"/>
      <point x="43" y="169" type="curve" smooth="yes"/>
      <point x="162" y="168"/>
      <point x="269" y="176"/>
      <point x="420" y="176" type="curve" smooth="yes"/>
      <point x="426" y="176"/>
      <point x="438" y="171"/>
      <point x="438" y="162" type="curve" smooth="yes"/>
      <point x="438" y="45" type="line" smooth="yes"/>
      <point x="438" y="15"/>
      <point x="425" y="7"/>
      <point x="347" y="7" type="curve" smooth="yes"/>
      <point x="338" y="7"/>
      <point x="326" y="5"/>
      <point x="326" y="2" type="curve" smooth="yes"/>
      <point x="326" y="-1"/>
      <point x="340" y="-3"/>
    </contour>
  </outline>
</glyph>
<glyph name="five" format="1">
  <advance width="692"/>
  <unicode hex="0035"/>
  <outline>
    <contour>
      <point x="149" y="-38" type="curve" smooth="yes"/>
      <point x="250" y="-38"/>
      <point x="343" y="-21"/>
      <point x="419" y="7" type="curve" smooth="yes"/>
      <point x="525" y="46"/>
      <point x="594" y="109"/>
      <point x="594" y="178" type="curve" smooth="yes"/>
      <point x="594" y="254"/>
      <point x="541" y="301"/>
      <point x="432" y="336" type="curve" smooth="yes"/>
      <point x="367" y="358"/>
      <point x="255" y="381"/>
      <point x="148" y="398" type="curve" smooth="yes"/>
      <point x="131" y="401"/>
      <point x="128" y="407"/>
      <point x="130" y="415" type="curve"/>
      <point x="131" y="430"/>
      <point x="158" y="478"/>
      <point x="182" y="481" type="curve" smooth="yes"/>
      <point x="224" y="485"/>
      <point x="391" y="492"/>
      <point x="467" y="498" type="curve" smooth="yes"/>
      <point x="491" y="500"/>
      <point x="506" y="510"/>
      <point x="520" y="530" type="curve" smooth="yes"/>
      <point x="527" y="541"/>
      <point x="534" y="553"/>
      <point x="543" y="564" type="curve" smooth="yes"/>
      <point x="550" y="574"/>
      <point x="541" y="583"/>
      <point x="527" y="582" type="curve" smooth="yes"/>
      <point x="415" y="575"/>
      <point x="318" y="564"/>
      <point x="229" y="549" type="curve" smooth="yes"/>
      <point x="200" y="544"/>
      <point x="181" y="534"/>
      <point x="171" y="515" type="curve" smooth="yes"/>
      <point x="151" y="475"/>
      <point x="104" y="401"/>
      <point x="104" y="364" type="curve" smooth="yes"/>
      <point x="104" y="348"/>
      <point x="113" y="331"/>
      <point x="137" y="318" type="curve"/>
      <point x="406" y="289"/>
      <point x="505" y="229"/>
      <point x="505" y="156" type="curve" smooth="yes"/>
      <point x="505" y="63"/>
      <point x="427" y="-11"/>
      <point x="148" y="-31" type="curve" smooth="yes"/>
      <point x="127" y="-32"/>
      <point x="97" y="-33"/>
      <point x="97" y="-35" type="curve" smooth="yes"/>
      <point x="97" y="-36"/>
      <point x="128" y="-38"/>
    </contour>
  </outline>
</glyph>
<glyph name="six" format="1">
  <advance width="692"/>
  <unicode hex="0036"/>
  <outline>
    <contour>
      <point x="362" y="-16" type="curve" smooth="yes"/>
      <point x="503" y="-16"/>
      <point x="659" y="59"/>
      <point x="659" y="176" type="curve" smooth="yes"/>
      <point x="659" y="244"/>
      <point x="570" y="293"/>
      <point x="471" y="293" type="curve" smooth="yes"/>
      <point x="429" y="293"/>
      <point x="379" y="285"/>
      <point x="341" y="270" type="curve" smooth="yes"/>
      <point x="323" y="264"/>
      <point x="307" y="255"/>
      <point x="292" y="248" type="curve" smooth="yes"/>
      <point x="280" y="242"/>
      <point x="284" y="233"/>
      <point x="302" y="241" type="curve" smooth="yes"/>
      <point x="338" y="255"/>
      <point x="387" y="268"/>
      <point x="429" y="268" type="curve" smooth="yes"/>
      <point x="514" y="268"/>
      <point x="574" y="206"/>
      <point x="574" y="129" type="curve" smooth="yes"/>
      <point x="574" y="35"/>
      <point x="491" y="-9"/>
      <point x="390" y="-8" type="curve" smooth="yes"/>
      <point x="290" y="-7"/>
      <point x="165" y="51"/>
      <point x="162" y="161" type="curve" smooth="yes"/>
      <point x="157" y="280"/>
      <point x="235" y="403"/>
      <point x="342" y="493" type="curve" smooth="yes"/>
      <point x="410" y="533"/>
      <point x="503" y="560"/>
      <point x="608" y="585" type="curve" smooth="yes"/>
      <point x="619" y="588"/>
      <point x="636" y="588"/>
      <point x="644" y="595" type="curve" smooth="yes"/>
      <point x="646" y="596"/>
      <point x="635" y="601"/>
      <point x="618" y="597" type="curve" smooth="yes"/>
      <point x="499" y="576"/>
      <point x="399" y="550"/>
      <point x="325" y="515" type="curve" smooth="yes"/>
      <point x="178" y="427"/>
      <point x="66" y="311"/>
      <point x="66" y="178" type="curve" smooth="yes"/>
      <point x="66" y="48"/>
      <point x="213" y="-16"/>
    </contour>
  </outline>
</glyph>
<glyph name="seven" format="1">
  <advance width="692"/>
  <unicode hex="0037"/>
  <outline>
    <contour>
      <point x="161" y="-32" type="curve" smooth="yes"/>
      <point x="165" y="-32"/>
      <point x="177" y="-18"/>
      <point x="185" y="-8" type="curve" smooth="yes"/>
      <point x="607" y="495" type="line" smooth="yes"/>
      <point x="621" y="511"/>
      <point x="660" y="547"/>
      <point x="660" y="562" type="curve" smooth="yes"/>
      <point x="660" y="567"/>
      <point x="656" y="574"/>
      <point x="652" y="574" type="curve" smooth="yes"/>
      <point x="625" y="573"/>
      <point x="477" y="569"/>
      <point x="334" y="569" type="curve" smooth="yes"/>
      <point x="267" y="569"/>
      <point x="236" y="570"/>
      <point x="194" y="570" type="curve" smooth="yes"/>
      <point x="135" y="570"/>
      <point x="80" y="579"/>
      <point x="76" y="579" type="curve" smooth="yes"/>
      <point x="72" y="579"/>
      <point x="63" y="577"/>
      <point x="61" y="568" type="curve" smooth="yes"/>
      <point x="57" y="543"/>
      <point x="47" y="492"/>
      <point x="37" y="464" type="curve"/>
      <point x="36" y="459"/>
      <point x="32" y="449"/>
      <point x="32" y="442" type="curve" smooth="yes"/>
      <point x="32" y="435"/>
      <point x="34" y="428"/>
      <point x="39" y="428" type="curve" smooth="yes"/>
      <point x="43" y="428"/>
      <point x="47" y="437"/>
      <point x="51" y="451" type="curve" smooth="yes"/>
      <point x="63" y="487"/>
      <point x="86" y="496"/>
      <point x="114" y="496" type="curve" smooth="yes"/>
      <point x="609" y="496" type="line"/>
      <point x="616" y="519" type="line"/>
      <point x="198" y="30" type="line" smooth="yes"/>
      <point x="186" y="15"/>
      <point x="152" y="-23"/>
      <point x="152" y="-29" type="curve" smooth="yes"/>
      <point x="152" y="-30"/>
      <point x="155" y="-32"/>
    </contour>
  </outline>
</glyph>
<glyph name="eight" format="1">
  <advance width="692"/>
  <unicode hex="0038"/>
  <outline>
    <contour>
      <point x="332" y="-14" type="curve" smooth="yes"/>
      <point x="473" y="-14"/>
      <point x="615" y="55"/>
      <point x="615" y="152" type="curve" smooth="yes"/>
      <point x="615" y="224"/>
      <point x="544" y="273"/>
      <point x="436" y="319" type="curve" smooth="yes"/>
      <point x="420" y="325"/>
      <point x="420" y="328"/>
      <point x="443" y="338" type="curve" smooth="yes"/>
      <point x="473" y="352"/>
      <point x="492" y="357"/>
      <point x="517" y="371" type="curve" smooth="yes"/>
      <point x="551" y="390"/>
      <point x="589" y="415"/>
      <point x="589" y="458" type="curve" smooth="yes"/>
      <point x="589" y="533"/>
      <point x="475" y="582"/>
      <point x="360" y="582" type="curve" smooth="yes"/>
      <point x="232" y="582"/>
      <point x="99" y="524"/>
      <point x="99" y="449" type="curve" smooth="yes"/>
      <point x="99" y="373"/>
      <point x="184" y="330"/>
      <point x="267" y="286" type="curve" smooth="yes"/>
      <point x="278" y="280"/>
      <point x="284" y="278"/>
      <point x="271" y="274" type="curve" smooth="yes"/>
      <point x="199" y="248"/>
      <point x="77" y="211"/>
      <point x="77" y="130" type="curve" smooth="yes"/>
      <point x="77" y="44"/>
      <point x="199" y="-14"/>
    </contour>
    <contour>
      <point x="352" y="-4" type="curve" smooth="yes"/>
      <point x="233" y="-4"/>
      <point x="161" y="67"/>
      <point x="161" y="136" type="curve" smooth="yes"/>
      <point x="161" y="196"/>
      <point x="199" y="233"/>
      <point x="274" y="265" type="curve" smooth="yes"/>
      <point x="282" y="268"/>
      <point x="289" y="270"/>
      <point x="294" y="270" type="curve" smooth="yes"/>
      <point x="305" y="270"/>
      <point x="315" y="266"/>
      <point x="329" y="260" type="curve"/>
      <point x="427" y="222"/>
      <point x="527" y="160"/>
      <point x="527" y="101" type="curve" smooth="yes"/>
      <point x="527" y="44"/>
      <point x="452" y="-4"/>
    </contour>
    <contour>
      <point x="412" y="332" type="curve"/>
      <point x="403" y="328"/>
      <point x="393" y="332"/>
      <point x="385" y="335" type="curve"/>
      <point x="266" y="387"/>
      <point x="183" y="407"/>
      <point x="183" y="480" type="curve" smooth="yes"/>
      <point x="183" y="531"/>
      <point x="276" y="572"/>
      <point x="354" y="572" type="curve" smooth="yes"/>
      <point x="454" y="572"/>
      <point x="507" y="524"/>
      <point x="507" y="470" type="curve" smooth="yes"/>
      <point x="507" y="414"/>
      <point x="487" y="367"/>
    </contour>
  </outline>
</glyph>
<glyph name="question" format="1">
  <advance width="530"/>
  <unicode hex="003F"/>
  <outline>
    <contour>
      <point x="175" y="180" type="curve" smooth="yes"/>
      <point x="178" y="180"/>
      <point x="180" y="194"/>
      <point x="182" y="203" type="curve" smooth="yes"/>
      <point x="190" y="234"/>
      <point x="202" y="259"/>
      <point x="257" y="282" type="curve" smooth="yes"/>
      <point x="302" y="303"/>
      <point x="317" y="308"/>
      <point x="379" y="332" type="curve" smooth="yes"/>
      <point x="407" y="343"/>
      <point x="433" y="367"/>
      <point x="433" y="416" type="curve" smooth="yes"/>
      <point x="433" y="468"/>
      <point x="381" y="554"/>
      <point x="302" y="611" type="curve" smooth="yes"/>
      <point x="255" y="644"/>
      <point x="202" y="661"/>
      <point x="155" y="661" type="curve" smooth="yes"/>
      <point x="126" y="661"/>
      <point x="99" y="645"/>
      <point x="99" y="625" type="curve" smooth="yes"/>
      <point x="99" y="598"/>
      <point x="118" y="569"/>
      <point x="149" y="569" type="curve" smooth="yes"/>
      <point x="161" y="569"/>
      <point x="172" y="572"/>
      <point x="182" y="575" type="curve" smooth="yes"/>
      <point x="193" y="578"/>
      <point x="204" y="581"/>
      <point x="216" y="581" type="curve" smooth="yes"/>
      <point x="338" y="580"/>
      <point x="407" y="522"/>
      <point x="407" y="464" type="curve" smooth="yes"/>
      <point x="407" y="436"/>
      <point x="355" y="410"/>
      <point x="305" y="396" type="curve" smooth="yes"/>
      <point x="195" y="356"/>
      <point x="137" y="332"/>
      <point x="137" y="292" type="curve" smooth="yes"/>
      <point x="137" y="252"/>
      <point x="153" y="229"/>
      <point x="161" y="207" type="curve" smooth="yes"/>
      <point x="168" y="191"/>
      <point x="169" y="180"/>
    </contour>
    <contour>
      <point x="184" y="-13" type="curve" smooth="yes"/>
      <point x="218" y="-16"/>
      <point x="248" y="8"/>
      <point x="251" y="41" type="curve" smooth="yes"/>
      <point x="254" y="74"/>
      <point x="229" y="102"/>
      <point x="195" y="106" type="curve" smooth="yes"/>
      <point x="161" y="110"/>
      <point x="131" y="84"/>
      <point x="128" y="52" type="curve" smooth="yes"/>
      <point x="125" y="19"/>
      <point x="150" y="-10"/>
    </contour>
  </outline>
</glyph>
<glyph name="at" format="1">
  <advance width="1062"/>
  <unicode hex="0040"/>
  <outline>
    <contour>
      <point x="542" y="-141" type="curve" smooth="yes"/>
      <point x="695" y="-141"/>
      <point x="897" y="-45"/>
      <point x="897" y="-19" type="curve" smooth="yes"/>
      <point x="897" y="-17"/>
      <point x="897" y="-16"/>
      <point x="896" y="-16" type="curve" smooth="yes"/>
      <point x="894" y="-16"/>
      <point x="891" y="-18"/>
      <point x="888" y="-19" type="curve" smooth="yes"/>
      <point x="790" y="-89"/>
      <point x="655" y="-131"/>
      <point x="558" y="-131" type="curve" smooth="yes"/>
      <point x="333" y="-131"/>
      <point x="90" y="-28"/>
      <point x="90" y="197" type="curve" smooth="yes"/>
      <point x="90" y="414"/>
      <point x="314" y="534"/>
      <point x="560" y="534" type="curve" smooth="yes"/>
      <point x="807" y="534"/>
      <point x="962" y="401"/>
      <point x="962" y="255" type="curve" smooth="yes"/>
      <point x="962" y="149"/>
      <point x="872" y="76"/>
      <point x="745" y="76" type="curve" smooth="yes"/>
      <point x="724" y="76"/>
      <point x="718" y="91"/>
      <point x="718" y="107" type="curve" smooth="yes"/>
      <point x="718" y="117"/>
      <point x="720" y="128"/>
      <point x="721" y="138" type="curve"/>
      <point x="743" y="292" type="line" smooth="yes"/>
      <point x="745" y="309"/>
      <point x="758" y="350"/>
      <point x="766" y="378" type="curve"/>
      <point x="770" y="382"/>
      <point x="760" y="382"/>
      <point x="755" y="382" type="curve" smooth="yes"/>
      <point x="748" y="382"/>
      <point x="742" y="363"/>
      <point x="714" y="363" type="curve" smooth="yes"/>
      <point x="709" y="363"/>
      <point x="700" y="367"/>
      <point x="678" y="372" type="curve" smooth="yes"/>
      <point x="661" y="377"/>
      <point x="614" y="381"/>
      <point x="586" y="381" type="curve" smooth="yes"/>
      <point x="430" y="381"/>
      <point x="286" y="297"/>
      <point x="286" y="167" type="curve" smooth="yes"/>
      <point x="286" y="92"/>
      <point x="367" y="50"/>
      <point x="469" y="50" type="curve" smooth="yes"/>
      <point x="576" y="50"/>
      <point x="634" y="90"/>
      <point x="649" y="90" type="curve" smooth="yes"/>
      <point x="666" y="90"/>
      <point x="662" y="50"/>
      <point x="723" y="50" type="curve" smooth="yes"/>
      <point x="854" y="50"/>
      <point x="974" y="126"/>
      <point x="974" y="258" type="curve" smooth="yes"/>
      <point x="974" y="412"/>
      <point x="799" y="544"/>
      <point x="587" y="544" type="curve" smooth="yes"/>
      <point x="316" y="544"/>
      <point x="80" y="424"/>
      <point x="80" y="194" type="curve" smooth="yes"/>
      <point x="80" y="-4"/>
      <point x="289" y="-141"/>
    </contour>
    <contour>
      <point x="508" y="65" type="curve" smooth="yes"/>
      <point x="442" y="65"/>
      <point x="364" y="92"/>
      <point x="364" y="183" type="curve" smooth="yes"/>
      <point x="364" y="306"/>
      <point x="464" y="372"/>
      <point x="559" y="372" type="curve" smooth="yes"/>
      <point x="638" y="372"/>
      <point x="677" y="355"/>
      <point x="677" y="300" type="curve" smooth="yes"/>
      <point x="677" y="294"/>
      <point x="676" y="288"/>
      <point x="675" y="280" type="curve"/>
      <point x="658" y="158" type="line" smooth="yes"/>
      <point x="652" y="114"/>
      <point x="632" y="103"/>
      <point x="612" y="92" type="curve" smooth="yes"/>
      <point x="577" y="75"/>
      <point x="548" y="65"/>
    </contour>
  </outline>
</glyph>
<glyph name="A" format="1">
  <advance width="976"/>
  <unicode hex="0041"/>
  <outline>
    <contour>
      <point x="25" y="-5" type="curve" smooth="yes"/>
      <point x="57" y="-5"/>
      <point x="133" y="-4"/>
      <point x="190" y="-4" type="curve" smooth="yes"/>
      <point x="174" y="-4"/>
      <point x="224" y="-4"/>
      <point x="241" y="-4" type="curve" smooth="yes"/>
      <point x="257" y="-4"/>
      <point x="269" y="-3"/>
      <point x="269" y="-2" type="curve" smooth="yes"/>
      <point x="269" y="1"/>
      <point x="254" y="3"/>
      <point x="232" y="4" type="curve" smooth="yes"/>
      <point x="184" y="7"/>
      <point x="155" y="16"/>
      <point x="155" y="37" type="curve" smooth="yes"/>
      <point x="155" y="74"/>
      <point x="236" y="205"/>
      <point x="248" y="228" type="curve" smooth="yes"/>
      <point x="255" y="241"/>
      <point x="263" y="244"/>
      <point x="271" y="244" type="curve" smooth="yes"/>
      <point x="618" y="244" type="line" smooth="yes"/>
      <point x="643" y="244"/>
      <point x="651" y="243"/>
      <point x="655" y="235" type="curve" smooth="yes"/>
      <point x="677" y="189"/>
      <point x="726" y="77"/>
      <point x="726" y="51" type="curve" smooth="yes"/>
      <point x="726" y="29"/>
      <point x="705" y="11"/>
      <point x="653" y="6" type="curve" smooth="yes"/>
      <point x="628" y="4"/>
      <point x="607" y="3"/>
      <point x="607" y="0" type="curve" smooth="yes"/>
      <point x="607" y="-2"/>
      <point x="623" y="-3"/>
      <point x="644" y="-3" type="curve" smooth="yes"/>
      <point x="674" y="-3"/>
      <point x="727" y="-3"/>
      <point x="772" y="-3" type="curve" smooth="yes"/>
      <point x="829" y="-3"/>
      <point x="911" y="-5"/>
      <point x="947" y="-5" type="curve" smooth="yes"/>
      <point x="968" y="-5"/>
      <point x="983" y="-4"/>
      <point x="983" y="-2" type="curve" smooth="yes"/>
      <point x="983" y="1"/>
      <point x="970" y="3"/>
      <point x="947" y="5" type="curve" smooth="yes"/>
      <point x="893" y="9"/>
      <point x="853" y="27"/>
      <point x="811" y="105" type="curve" smooth="yes"/>
      <point x="762" y="193"/>
      <point x="641" y="429"/>
      <point x="547" y="613" type="curve" smooth="yes"/>
      <point x="543" y="621"/>
      <point x="541" y="629"/>
      <point x="536" y="634" type="curve"/>
      <point x="535" y="636"/>
      <point x="529" y="636"/>
      <point x="528" y="635" type="curve"/>
      <point x="521" y="630"/>
      <point x="515" y="611"/>
      <point x="495" y="604" type="curve" smooth="yes"/>
      <point x="474" y="596"/>
      <point x="454" y="593"/>
      <point x="433" y="590" type="curve"/>
      <point x="431" y="570"/>
      <point x="424" y="554"/>
      <point x="414" y="536" type="curve" smooth="yes"/>
      <point x="319" y="364"/>
      <point x="252" y="237"/>
      <point x="153" y="86" type="curve" smooth="yes"/>
      <point x="111" y="12"/>
      <point x="77" y="4"/>
      <point x="38" y="3" type="curve" smooth="yes"/>
      <point x="10" y="3"/>
      <point x="-3" y="0"/>
      <point x="-3" y="-2" type="curve" smooth="yes"/>
      <point x="-3" y="-4"/>
      <point x="9" y="-5"/>
    </contour>
    <contour>
      <point x="306" y="253" type="line" smooth="yes"/>
      <point x="288" y="253"/>
      <point x="277" y="253"/>
      <point x="277" y="259" type="curve" smooth="yes"/>
      <point x="277" y="261"/>
      <point x="279" y="264"/>
      <point x="280" y="267" type="curve"/>
      <point x="433" y="558" type="line" smooth="yes"/>
      <point x="443" y="575"/>
      <point x="455" y="586"/>
      <point x="463" y="586" type="curve" smooth="yes"/>
      <point x="478" y="586"/>
      <point x="489" y="572"/>
      <point x="497" y="558" type="curve" smooth="yes"/>
      <point x="631" y="267" type="line"/>
      <point x="633" y="263"/>
      <point x="634" y="259"/>
      <point x="634" y="257" type="curve" smooth="yes"/>
      <point x="634" y="253"/>
      <point x="628" y="253"/>
      <point x="614" y="253" type="curve" smooth="yes"/>
    </contour>
  </outline>
</glyph>
<glyph name="C" format="1">
  <advance width="982"/>
  <unicode hex="0043"/>
  <outline>
    <contour>
      <point x="568" y="-16" type="curve" smooth="yes"/>
      <point x="657" y="-16"/>
      <point x="766" y="-6"/>
      <point x="834" y="13" type="curve" smooth="yes"/>
      <point x="862" y="20"/>
      <point x="866" y="19"/>
      <point x="877" y="40" type="curve" smooth="yes"/>
      <point x="890" y="68"/>
      <point x="905" y="121"/>
      <point x="905" y="137" type="curve" smooth="yes"/>
      <point x="905" y="158"/>
      <point x="885" y="160"/>
      <point x="876" y="141" type="curve" smooth="yes"/>
      <point x="821" y="26"/>
      <point x="765" y="-5"/>
      <point x="572" y="-5" type="curve" smooth="yes"/>
      <point x="331" y="-5"/>
      <point x="175" y="160"/>
      <point x="175" y="321" type="curve" smooth="yes"/>
      <point x="175" y="467"/>
      <point x="333" y="603"/>
      <point x="562" y="603" type="curve" smooth="yes"/>
      <point x="705" y="603"/>
      <point x="764" y="582"/>
      <point x="800" y="553" type="curve" smooth="yes"/>
      <point x="834" y="525"/>
      <point x="850" y="493"/>
      <point x="867" y="438" type="curve" smooth="yes"/>
      <point x="875" y="414"/>
      <point x="899" y="424"/>
      <point x="898" y="439" type="curve" smooth="yes"/>
      <point x="895" y="491"/>
      <point x="892" y="523"/>
      <point x="888" y="554" type="curve" smooth="yes"/>
      <point x="886" y="572"/>
      <point x="876" y="583"/>
      <point x="849" y="588" type="curve" smooth="yes"/>
      <point x="756" y="605"/>
      <point x="707" y="614"/>
      <point x="602" y="614" type="curve" smooth="yes"/>
      <point x="312" y="614"/>
      <point x="64" y="482"/>
      <point x="64" y="298" type="curve" smooth="yes"/>
      <point x="64" y="105"/>
      <point x="303" y="-16"/>
    </contour>
  </outline>
</glyph>
<glyph name="E" format="1">
  <advance width="793"/>
  <unicode hex="0045"/>
  <outline>
    <contour>
      <point x="93" y="-5" type="curve" smooth="yes"/>
      <point x="170" y="-5"/>
      <point x="170" y="1"/>
      <point x="256" y="1" type="curve" smooth="yes"/>
      <point x="399" y="1"/>
      <point x="526" y="-5"/>
      <point x="708" y="-5" type="curve" smooth="yes"/>
      <point x="719" y="-5"/>
      <point x="721" y="2"/>
      <point x="726" y="12" type="curve" smooth="yes"/>
      <point x="738" y="39"/>
      <point x="758" y="118"/>
      <point x="758" y="136" type="curve" smooth="yes"/>
      <point x="758" y="144"/>
      <point x="757" y="149"/>
      <point x="747" y="150" type="curve" smooth="yes"/>
      <point x="741" y="151"/>
      <point x="737" y="142"/>
      <point x="733" y="132" type="curve" smooth="yes"/>
      <point x="712" y="81"/>
      <point x="697" y="47"/>
      <point x="676" y="28" type="curve" smooth="yes"/>
      <point x="655" y="11"/>
      <point x="626" y="7"/>
      <point x="583" y="7" type="curve" smooth="yes"/>
      <point x="338" y="7" type="line" smooth="yes"/>
      <point x="291" y="7"/>
      <point x="268" y="23"/>
      <point x="268" y="74" type="curve" smooth="yes"/>
      <point x="268" y="279" type="line" smooth="yes"/>
      <point x="268" y="302"/>
      <point x="280" y="305"/>
      <point x="304" y="305" type="curve" smooth="yes"/>
      <point x="541" y="305" type="line" smooth="yes"/>
      <point x="567" y="305"/>
      <point x="579" y="278"/>
      <point x="587" y="242" type="curve" smooth="yes"/>
      <point x="592" y="221"/>
      <point x="595" y="210"/>
      <point x="604" y="210" type="curve" smooth="yes"/>
      <point x="611" y="210"/>
      <point x="610" y="218"/>
      <point x="610" y="227" type="curve" smooth="yes"/>
      <point x="610" y="235"/>
      <point x="608" y="290"/>
      <point x="608" y="310" type="curve" smooth="yes"/>
      <point x="608" y="326"/>
      <point x="612" y="377"/>
      <point x="612" y="386" type="curve" smooth="yes"/>
      <point x="612" y="396"/>
      <point x="607" y="402"/>
      <point x="601" y="402" type="curve" smooth="yes"/>
      <point x="594" y="402"/>
      <point x="593" y="395"/>
      <point x="589" y="380" type="curve" smooth="yes"/>
      <point x="579" y="340"/>
      <point x="566" y="313"/>
      <point x="533" y="313" type="curve" smooth="yes"/>
      <point x="288" y="313" type="line" smooth="yes"/>
      <point x="277" y="313"/>
      <point x="268" y="323"/>
      <point x="268" y="335" type="curve" smooth="yes"/>
      <point x="268" y="565" type="line" smooth="yes"/>
      <point x="268" y="586"/>
      <point x="279" y="592"/>
      <point x="313" y="592" type="curve" smooth="yes"/>
      <point x="608" y="592" type="line" smooth="yes"/>
      <point x="643" y="592"/>
      <point x="652" y="583"/>
      <point x="665" y="553" type="curve" smooth="yes"/>
      <point x="672" y="538"/>
      <point x="684" y="505"/>
      <point x="694" y="484" type="curve" smooth="yes"/>
      <point x="699" y="470"/>
      <point x="703" y="468"/>
      <point x="708" y="468" type="curve" smooth="yes"/>
      <point x="715" y="468"/>
      <point x="717" y="471"/>
      <point x="717" y="483" type="curve" smooth="yes"/>
      <point x="717" y="510"/>
      <point x="708" y="556"/>
      <point x="701" y="588" type="curve"/>
      <point x="698" y="599"/>
      <point x="686" y="603"/>
      <point x="674" y="603" type="curve" smooth="yes"/>
      <point x="667" y="603"/>
      <point x="613" y="602"/>
      <point x="549" y="601" type="curve" smooth="yes"/>
      <point x="490" y="601"/>
      <point x="417" y="600"/>
      <point x="354" y="600" type="curve" smooth="yes"/>
      <point x="255" y="600"/>
      <point x="209" y="603"/>
      <point x="103" y="603" type="curve" smooth="yes"/>
      <point x="79" y="603"/>
      <point x="62" y="602"/>
      <point x="60" y="599" type="curve" smooth="yes"/>
      <point x="60" y="595"/>
      <point x="72" y="593"/>
      <point x="99" y="591" type="curve" smooth="yes"/>
      <point x="157" y="588"/>
      <point x="178" y="581"/>
      <point x="178" y="563" type="curve" smooth="yes"/>
      <point x="178" y="64" type="line" smooth="yes"/>
      <point x="178" y="21"/>
      <point x="160" y="12"/>
      <point x="90" y="7" type="curve" smooth="yes"/>
      <point x="63" y="6"/>
      <point x="52" y="3"/>
      <point x="52" y="0" type="curve" smooth="yes"/>
      <point x="52" y="-4"/>
      <point x="69" y="-5"/>
    </contour>
  </outline>
</glyph>
<glyph name="G" format="1">
  <advance width="1036"/>
  <unicode hex="0047"/>
  <outline>
    <contour>
      <point x="558" y="-15" type="curve" smooth="yes"/>
      <point x="742" y="-15"/>
      <point x="870" y="44"/>
      <point x="898" y="47" type="curve" smooth="yes"/>
      <point x="917" y="49"/>
      <point x="917" y="60"/>
      <point x="917" y="64" type="curve" smooth="yes"/>
      <point x="917" y="69"/>
      <point x="905" y="74"/>
      <point x="899" y="80" type="curve"/>
      <point x="895" y="86"/>
      <point x="891" y="89"/>
      <point x="891" y="95" type="curve" smooth="yes"/>
      <point x="891" y="120" type="line" smooth="yes"/>
      <point x="891" y="143"/>
      <point x="896" y="184"/>
      <point x="897" y="204" type="curve" smooth="yes"/>
      <point x="897" y="238"/>
      <point x="911" y="257"/>
      <point x="957" y="257" type="curve"/>
      <point x="965" y="258"/>
      <point x="986" y="263"/>
      <point x="986" y="264" type="curve" smooth="yes"/>
      <point x="986" y="266"/>
      <point x="967" y="267"/>
      <point x="961" y="267" type="curve" smooth="yes"/>
      <point x="915" y="267"/>
      <point x="893" y="263"/>
      <point x="849" y="263" type="curve" smooth="yes"/>
      <point x="780" y="263"/>
      <point x="753" y="267"/>
      <point x="691" y="267" type="curve" smooth="yes"/>
      <point x="685" y="267"/>
      <point x="667" y="267"/>
      <point x="667" y="264" type="curve" smooth="yes"/>
      <point x="667" y="262"/>
      <point x="684" y="257"/>
      <point x="691" y="257" type="curve" smooth="yes"/>
      <point x="722" y="256"/>
      <point x="781" y="255"/>
      <point x="802" y="251" type="curve" smooth="yes"/>
      <point x="812" y="249"/>
      <point x="816" y="233"/>
      <point x="816" y="202" type="curve" smooth="yes"/>
      <point x="816" y="155"/>
      <point x="814" y="139"/>
      <point x="814" y="121" type="curve" smooth="yes"/>
      <point x="814" y="84"/>
      <point x="796" y="55"/>
      <point x="777" y="38" type="curve" smooth="yes"/>
      <point x="754" y="21"/>
      <point x="697" y="-3"/>
      <point x="577" y="-3" type="curve" smooth="yes"/>
      <point x="371" y="-3"/>
      <point x="172" y="108"/>
      <point x="172" y="299" type="curve" smooth="yes"/>
      <point x="172" y="457"/>
      <point x="336" y="600"/>
      <point x="578" y="600" type="curve" smooth="yes"/>
      <point x="720" y="600"/>
      <point x="800" y="568"/>
      <point x="831" y="541" type="curve" smooth="yes"/>
      <point x="850" y="523"/>
      <point x="857" y="489"/>
      <point x="864" y="464" type="curve"/>
      <point x="868" y="450"/>
      <point x="873" y="434"/>
      <point x="887" y="434" type="curve" smooth="yes"/>
      <point x="895" y="434"/>
      <point x="901" y="443"/>
      <point x="901" y="452" type="curve" smooth="yes"/>
      <point x="901" y="476"/>
      <point x="894" y="536"/>
      <point x="887" y="572" type="curve" smooth="yes"/>
      <point x="885" y="578"/>
      <point x="883" y="580"/>
      <point x="874" y="583" type="curve" smooth="yes"/>
      <point x="836" y="595"/>
      <point x="662" y="613"/>
      <point x="591" y="613" type="curve" smooth="yes"/>
      <point x="305" y="613"/>
      <point x="63" y="472"/>
      <point x="63" y="286" type="curve" smooth="yes"/>
      <point x="63" y="115"/>
      <point x="293" y="-15"/>
    </contour>
  </outline>
</glyph>
<glyph name="H" format="1">
  <advance width="1157"/>
  <unicode hex="0048"/>
  <outline>
    <contour>
      <point x="86" y="-4" type="curve" smooth="yes"/>
      <point x="153" y="-4"/>
      <point x="163" y="-4"/>
      <point x="213" y="-4" type="curve" smooth="yes"/>
      <point x="266" y="-4"/>
      <point x="281" y="-4"/>
      <point x="343" y="-4" type="curve" smooth="yes"/>
      <point x="364" y="-4"/>
      <point x="375" y="-3"/>
      <point x="375" y="0" type="curve" smooth="yes"/>
      <point x="375" y="2"/>
      <point x="365" y="4"/>
      <point x="337" y="7" type="curve" smooth="yes"/>
      <point x="279" y="9"/>
      <point x="253" y="11"/>
      <point x="253" y="27" type="curve" smooth="yes"/>
      <point x="253" y="283" type="line" smooth="yes"/>
      <point x="253" y="293"/>
      <point x="255" y="296"/>
      <point x="261" y="296" type="curve" smooth="yes"/>
      <point x="895" y="296" type="line" smooth="yes"/>
      <point x="901" y="296"/>
      <point x="903" y="290"/>
      <point x="903" y="280" type="curve" smooth="yes"/>
      <point x="903" y="28" type="line" smooth="yes"/>
      <point x="903" y="11"/>
      <point x="881" y="9"/>
      <point x="825" y="7" type="curve" smooth="yes"/>
      <point x="798" y="4"/>
      <point x="787" y="2"/>
      <point x="787" y="0" type="curve" smooth="yes"/>
      <point x="787" y="-3"/>
      <point x="799" y="-4"/>
      <point x="819" y="-4" type="curve" smooth="yes"/>
      <point x="882" y="-4"/>
      <point x="892" y="-4"/>
      <point x="943" y="-4" type="curve" smooth="yes"/>
      <point x="992" y="-4"/>
      <point x="1000" y="-4"/>
      <point x="1067" y="-4" type="curve" smooth="yes"/>
      <point x="1088" y="-4"/>
      <point x="1101" y="-3"/>
      <point x="1101" y="0" type="curve" smooth="yes"/>
      <point x="1101" y="2"/>
      <point x="1089" y="4"/>
      <point x="1060" y="7" type="curve" smooth="yes"/>
      <point x="1000" y="8"/>
      <point x="993" y="12"/>
      <point x="993" y="28" type="curve" smooth="yes"/>
      <point x="993" y="567" type="line" smooth="yes"/>
      <point x="993" y="585"/>
      <point x="998" y="589"/>
      <point x="1058" y="591" type="curve" smooth="yes"/>
      <point x="1087" y="592"/>
      <point x="1100" y="594"/>
      <point x="1100" y="597" type="curve" smooth="yes"/>
      <point x="1100" y="599"/>
      <point x="1088" y="601"/>
      <point x="1066" y="601" type="curve" smooth="yes"/>
      <point x="998" y="601"/>
      <point x="996" y="600"/>
      <point x="950" y="600" type="curve" smooth="yes"/>
      <point x="897" y="600"/>
      <point x="883" y="601"/>
      <point x="820" y="601" type="curve" smooth="yes"/>
      <point x="799" y="601"/>
      <point x="788" y="599"/>
      <point x="788" y="597" type="curve" smooth="yes"/>
      <point x="788" y="594"/>
      <point x="799" y="592"/>
      <point x="827" y="591" type="curve" smooth="yes"/>
      <point x="887" y="589"/>
      <point x="903" y="585"/>
      <point x="903" y="567" type="curve" smooth="yes"/>
      <point x="903" y="318" type="line" smooth="yes"/>
      <point x="903" y="308"/>
      <point x="899" y="304"/>
      <point x="894" y="304" type="curve" smooth="yes"/>
      <point x="266" y="304" type="line" smooth="yes"/>
      <point x="260" y="304"/>
      <point x="253" y="306"/>
      <point x="253" y="316" type="curve" smooth="yes"/>
      <point x="253" y="567" type="line" smooth="yes"/>
      <point x="253" y="585"/>
      <point x="270" y="589"/>
      <point x="330" y="591" type="curve" smooth="yes"/>
      <point x="357" y="592"/>
      <point x="369" y="594"/>
      <point x="369" y="597" type="curve" smooth="yes"/>
      <point x="369" y="599"/>
      <point x="359" y="601"/>
      <point x="337" y="601" type="curve" smooth="yes"/>
      <point x="274" y="601"/>
      <point x="264" y="600"/>
      <point x="213" y="600" type="curve" smooth="yes"/>
      <point x="165" y="600"/>
      <point x="157" y="601"/>
      <point x="90" y="601" type="curve" smooth="yes"/>
      <point x="67" y="601"/>
      <point x="56" y="599"/>
      <point x="56" y="597" type="curve" smooth="yes"/>
      <point x="56" y="594"/>
      <point x="68" y="592"/>
      <point x="97" y="591" type="curve" smooth="yes"/>
      <point x="157" y="589"/>
      <point x="163" y="584"/>
      <point x="163" y="567" type="curve" smooth="yes"/>
      <point x="163" y="27" type="line" smooth="yes"/>
      <point x="163" y="11"/>
      <point x="153" y="8"/>
      <point x="93" y="7" type="curve" smooth="yes"/>
      <point x="64" y="4"/>
      <point x="52" y="2"/>
      <point x="52" y="0" type="curve" smooth="yes"/>
      <point x="52" y="-3"/>
      <point x="65" y="-4"/>
    </contour>
  </outline>
</glyph>
<glyph name="J" format="1">
  <advance width="350"/>
  <unicode hex="004A"/>
  <outline>
    <contour>
      <point x="0" y="-200" type="curve" smooth="yes"/>
      <point x="54" y="-200"/>
      <point x="90" y="-178"/>
      <point x="135" y="-146" type="curve" smooth="yes"/>
      <point x="181" y="-107"/>
      <point x="244" y="-37"/>
      <point x="244" y="71" type="curve" smooth="yes"/>
      <point x="244" y="559" type="line" smooth="yes"/>
      <point x="244" y="579"/>
      <point x="275" y="586"/>
      <point x="336" y="589" type="curve" smooth="yes"/>
      <point x="364" y="591"/>
      <point x="376" y="594"/>
      <point x="376" y="598" type="curve" smooth="yes"/>
      <point x="376" y="601"/>
      <point x="362" y="602"/>
      <point x="342" y="602" type="curve" smooth="yes"/>
      <point x="278" y="602"/>
      <point x="260" y="601"/>
      <point x="206" y="601" type="curve" smooth="yes"/>
      <point x="151" y="601"/>
      <point x="131" y="602"/>
      <point x="66" y="602" type="curve" smooth="yes"/>
      <point x="47" y="602"/>
      <point x="33" y="601"/>
      <point x="33" y="598" type="curve" smooth="yes"/>
      <point x="33" y="594"/>
      <point x="44" y="591"/>
      <point x="73" y="589" type="curve" smooth="yes"/>
      <point x="134" y="586"/>
      <point x="154" y="579"/>
      <point x="154" y="559" type="curve" smooth="yes"/>
      <point x="154" y="23" type="line" smooth="yes"/>
      <point x="154" y="-103"/>
      <point x="102" y="-183"/>
      <point x="29" y="-183" type="curve" smooth="yes"/>
      <point x="-7" y="-183"/>
      <point x="-31" y="-168"/>
      <point x="-53" y="-138" type="curve" smooth="yes"/>
      <point x="-70" y="-115"/>
      <point x="-86" y="-104"/>
      <point x="-103" y="-104" type="curve" smooth="yes"/>
      <point x="-120" y="-104"/>
      <point x="-141" y="-126"/>
      <point x="-141" y="-149" type="curve" smooth="yes"/>
      <point x="-141" y="-183"/>
      <point x="-105" y="-200"/>
    </contour>
  </outline>
</glyph>
<glyph name="M" format="1">
  <advance width="1251"/>
  <unicode hex="004D"/>
  <outline>
    <contour>
      <point x="70" y="-5" type="curve" smooth="yes"/>
      <point x="136" y="-5"/>
      <point x="137" y="0"/>
      <point x="181" y="0" type="curve" smooth="yes"/>
      <point x="224" y="0"/>
      <point x="227" y="-5"/>
      <point x="290" y="-5" type="curve" smooth="yes"/>
      <point x="310" y="-5"/>
      <point x="324" y="-4"/>
      <point x="324" y="0" type="curve" smooth="yes"/>
      <point x="324" y="4"/>
      <point x="312" y="5"/>
      <point x="284" y="7" type="curve" smooth="yes"/>
      <point x="215" y="12"/>
      <point x="187" y="20"/>
      <point x="187" y="65" type="curve" smooth="yes"/>
      <point x="192" y="223"/>
      <point x="220" y="408"/>
      <point x="235" y="529" type="curve" smooth="yes"/>
      <point x="236" y="536"/>
      <point x="246" y="536"/>
      <point x="250" y="529" type="curve" smooth="yes"/>
      <point x="341" y="368"/>
      <point x="470" y="136"/>
      <point x="542" y="-3" type="curve" smooth="yes"/>
      <point x="548" y="-13"/>
      <point x="572" y="-13"/>
      <point x="579" y="-4" type="curve" smooth="yes"/>
      <point x="929" y="500" type="line" smooth="yes"/>
      <point x="937" y="513"/>
      <point x="947" y="514"/>
      <point x="949" y="500" type="curve"/>
      <point x="961" y="384"/>
      <point x="967" y="221"/>
      <point x="967" y="34" type="curve" smooth="yes"/>
      <point x="967" y="15"/>
      <point x="952" y="9"/>
      <point x="903" y="7" type="curve" smooth="yes"/>
      <point x="875" y="5"/>
      <point x="862" y="3"/>
      <point x="862" y="0" type="curve" smooth="yes"/>
      <point x="862" y="-3"/>
      <point x="877" y="-5"/>
      <point x="897" y="-5" type="curve" smooth="yes"/>
      <point x="963" y="-5"/>
      <point x="975" y="0"/>
      <point x="1025" y="0" type="curve" smooth="yes"/>
      <point x="1080" y="0"/>
      <point x="1101" y="-5"/>
      <point x="1165" y="-5" type="curve" smooth="yes"/>
      <point x="1186" y="-5"/>
      <point x="1200" y="-3"/>
      <point x="1200" y="0" type="curve" smooth="yes"/>
      <point x="1200" y="3"/>
      <point x="1188" y="5"/>
      <point x="1159" y="7" type="curve" smooth="yes"/>
      <point x="1098" y="10"/>
      <point x="1066" y="19"/>
      <point x="1064" y="34" type="curve" smooth="yes"/>
      <point x="1059" y="230"/>
      <point x="1042" y="352"/>
      <point x="1042" y="552" type="curve" smooth="yes"/>
      <point x="1042" y="581"/>
      <point x="1052" y="587"/>
      <point x="1075" y="590" type="curve" smooth="yes"/>
      <point x="1101" y="592"/>
      <point x="1133" y="595"/>
      <point x="1145" y="596" type="curve" smooth="yes"/>
      <point x="1171" y="599"/>
      <point x="1179" y="600"/>
      <point x="1179" y="603" type="curve" smooth="yes"/>
      <point x="1179" y="606"/>
      <point x="1159" y="606"/>
      <point x="1150" y="606" type="curve" smooth="yes"/>
      <point x="1119" y="606"/>
      <point x="1049" y="598"/>
      <point x="994" y="598" type="curve" smooth="yes"/>
      <point x="945" y="598" type="line" smooth="yes"/>
      <point x="938" y="598"/>
      <point x="934" y="593"/>
      <point x="931" y="585" type="curve" smooth="yes"/>
      <point x="926" y="563"/>
      <point x="912" y="500"/>
      <point x="903" y="476" type="curve"/>
      <point x="618" y="72" type="line" smooth="yes"/>
      <point x="612" y="62"/>
      <point x="607" y="64"/>
      <point x="602" y="74" type="curve" smooth="yes"/>
      <point x="361" y="506" type="line" smooth="yes"/>
      <point x="348" y="534"/>
      <point x="341" y="556"/>
      <point x="331" y="581" type="curve" smooth="yes"/>
      <point x="326" y="591"/>
      <point x="316" y="597"/>
      <point x="303" y="597" type="curve" smooth="yes"/>
      <point x="265" y="597"/>
      <point x="144" y="605"/>
      <point x="109" y="605" type="curve" smooth="yes"/>
      <point x="82" y="605"/>
      <point x="64" y="605"/>
      <point x="64" y="602" type="curve" smooth="yes"/>
      <point x="64" y="600"/>
      <point x="75" y="598"/>
      <point x="92" y="597" type="curve" smooth="yes"/>
      <point x="145" y="594"/>
      <point x="174" y="592"/>
      <point x="193" y="585" type="curve" smooth="yes"/>
      <point x="206" y="579"/>
      <point x="209" y="570"/>
      <point x="209" y="555" type="curve" smooth="yes"/>
      <point x="211" y="544"/>
      <point x="210" y="531"/>
      <point x="210" y="514" type="curve" smooth="yes"/>
      <point x="210" y="404"/>
      <point x="193" y="259"/>
      <point x="166" y="62" type="curve" smooth="yes"/>
      <point x="158" y="18"/>
      <point x="140" y="11"/>
      <point x="76" y="6" type="curve" smooth="yes"/>
      <point x="47" y="4"/>
      <point x="35" y="4"/>
      <point x="35" y="0" type="curve" smooth="yes"/>
      <point x="35" y="-4"/>
      <point x="49" y="-5"/>
    </contour>
  </outline>
</glyph>
<glyph name="N" format="1">
  <advance width="1080"/>
  <unicode hex="004E"/>
  <outline>
    <contour>
      <point x="919" y="-17" type="curve" smooth="yes"/>
      <point x="935" y="-17"/>
      <point x="952" y="-13"/>
      <point x="952" y="8" type="curve" smooth="yes"/>
      <point x="952" y="21"/>
      <point x="945" y="57"/>
      <point x="945" y="105" type="curve" smooth="yes"/>
      <point x="945" y="305"/>
      <point x="946" y="424"/>
      <point x="946" y="531" type="curve" smooth="yes"/>
      <point x="948" y="576"/>
      <point x="970" y="583"/>
      <point x="1025" y="590" type="curve" smooth="yes"/>
      <point x="1054" y="594"/>
      <point x="1066" y="595"/>
      <point x="1066" y="598" type="curve" smooth="yes"/>
      <point x="1066" y="601"/>
      <point x="1052" y="602"/>
      <point x="1034" y="602" type="curve" smooth="yes"/>
      <point x="973" y="602"/>
      <point x="966" y="597"/>
      <point x="940" y="597" type="curve" smooth="yes"/>
      <point x="876" y="597"/>
      <point x="866" y="602"/>
      <point x="833" y="602" type="curve" smooth="yes"/>
      <point x="817" y="602"/>
      <point x="805" y="601"/>
      <point x="805" y="598" type="curve" smooth="yes"/>
      <point x="805" y="595"/>
      <point x="821" y="595"/>
      <point x="851" y="592" type="curve" smooth="yes"/>
      <point x="917" y="584"/>
      <point x="932" y="579"/>
      <point x="932" y="533" type="curve"/>
      <point x="932" y="415"/>
      <point x="931" y="187"/>
      <point x="931" y="92" type="curve"/>
      <point x="930" y="77"/>
      <point x="924" y="71"/>
      <point x="917" y="71" type="curve" smooth="yes"/>
      <point x="906" y="71"/>
      <point x="889" y="84"/>
      <point x="882" y="89" type="curve" smooth="yes"/>
      <point x="854" y="111"/>
      <point x="294" y="561"/>
      <point x="268" y="586" type="curve"/>
      <point x="257" y="595"/>
      <point x="248" y="602"/>
      <point x="230" y="602" type="curve" smooth="yes"/>
      <point x="129" y="602"/>
      <point x="144" y="606"/>
      <point x="45" y="607" type="curve" smooth="yes"/>
      <point x="36" y="607"/>
      <point x="17" y="606"/>
      <point x="17" y="604" type="curve" smooth="yes"/>
      <point x="17" y="600"/>
      <point x="38" y="598"/>
      <point x="51" y="598" type="curve" smooth="yes"/>
      <point x="137" y="593"/>
      <point x="174" y="573"/>
      <point x="174" y="523" type="curve" smooth="yes"/>
      <point x="174" y="312"/>
      <point x="164" y="173"/>
      <point x="159" y="66" type="curve" smooth="yes"/>
      <point x="155" y="21"/>
      <point x="135" y="13"/>
      <point x="81" y="7" type="curve" smooth="yes"/>
      <point x="51" y="3"/>
      <point x="38" y="2"/>
      <point x="38" y="-1" type="curve" smooth="yes"/>
      <point x="38" y="-4"/>
      <point x="51" y="-5"/>
      <point x="68" y="-5" type="curve" smooth="yes"/>
      <point x="126" y="-5"/>
      <point x="128" y="0"/>
      <point x="165" y="0" type="curve" smooth="yes"/>
      <point x="205" y="0"/>
      <point x="208" y="-5"/>
      <point x="265" y="-5" type="curve" smooth="yes"/>
      <point x="283" y="-5"/>
      <point x="296" y="-4"/>
      <point x="296" y="-1" type="curve" smooth="yes"/>
      <point x="296" y="2"/>
      <point x="283" y="4"/>
      <point x="254" y="5" type="curve" smooth="yes"/>
      <point x="187" y="11"/>
      <point x="173" y="24"/>
      <point x="173" y="61" type="curve" smooth="yes"/>
      <point x="173" y="209"/>
      <point x="187" y="414"/>
      <point x="185" y="501" type="curve" smooth="yes"/>
      <point x="185" y="510"/>
      <point x="190" y="522"/>
      <point x="199" y="522" type="curve" smooth="yes"/>
      <point x="206" y="522"/>
      <point x="215" y="518"/>
      <point x="229" y="506" type="curve" smooth="yes"/>
      <point x="261" y="481"/>
      <point x="777" y="62"/>
      <point x="801" y="40" type="curve" smooth="yes"/>
      <point x="842" y="0"/>
      <point x="900" y="-17"/>
    </contour>
  </outline>
</glyph>
<glyph name="Q" format="1">
  <advance width="1087"/>
  <unicode hex="0051"/>
  <outline>
    <contour>
      <point x="1058" y="-248" type="curve" smooth="yes"/>
      <point x="1111" y="-248"/>
      <point x="1171" y="-238"/>
      <point x="1226" y="-213" type="curve" smooth="yes"/>
      <point x="1248" y="-204"/>
      <point x="1252" y="-199"/>
      <point x="1252" y="-186" type="curve" smooth="yes"/>
      <point x="1252" y="-180"/>
      <point x="1247" y="-178"/>
      <point x="1240" y="-178" type="curve" smooth="yes"/>
      <point x="1231" y="-178"/>
      <point x="1220" y="-181"/>
      <point x="1210" y="-183" type="curve"/>
      <point x="1195" y="-188"/>
      <point x="1158" y="-192"/>
      <point x="1119" y="-192" type="curve" smooth="yes"/>
      <point x="1023" y="-192"/>
      <point x="940" y="-172"/>
      <point x="852" y="-128" type="curve" smooth="yes"/>
      <point x="785" y="-94"/>
      <point x="728" y="-59"/>
      <point x="678" y="-18" type="curve"/>
      <point x="675" y="-15"/>
      <point x="674" y="-12"/>
      <point x="674" y="-9" type="curve" smooth="yes"/>
      <point x="674" y="-7"/>
      <point x="675" y="-4"/>
      <point x="682" y="-2" type="curve" smooth="yes"/>
      <point x="905" y="38"/>
      <point x="1025" y="169"/>
      <point x="1025" y="309" type="curve" smooth="yes"/>
      <point x="1025" y="492"/>
      <point x="802" y="614"/>
      <point x="550" y="614" type="curve" smooth="yes"/>
      <point x="233" y="614"/>
      <point x="63" y="458"/>
      <point x="63" y="291" type="curve" smooth="yes"/>
      <point x="63" y="146"/>
      <point x="194" y="51"/>
      <point x="364" y="6" type="curve" smooth="yes"/>
      <point x="437" y="-11"/>
      <point x="505" y="-34"/>
      <point x="573" y="-71" type="curve" smooth="yes"/>
      <point x="696" y="-134"/>
      <point x="733" y="-154"/>
      <point x="799" y="-186" type="curve" smooth="yes"/>
      <point x="877" y="-224"/>
      <point x="953" y="-248"/>
    </contour>
    <contour>
      <point x="560" y="-5" type="curve" smooth="yes"/>
      <point x="323" y="-5"/>
      <point x="169" y="141"/>
      <point x="169" y="341" type="curve" smooth="yes"/>
      <point x="169" y="495"/>
      <point x="300" y="603"/>
      <point x="526" y="603" type="curve" smooth="yes"/>
      <point x="774" y="603"/>
      <point x="919" y="450"/>
      <point x="919" y="260" type="curve" smooth="yes"/>
      <point x="919" y="108"/>
      <point x="786" y="-5"/>
    </contour>
  </outline>
</glyph>
<glyph name="S" format="1">
  <advance width="644"/>
  <unicode hex="0053"/>
  <outline>
    <contour>
      <point x="290" y="-16" type="curve" smooth="yes"/>
      <point x="476" y="-16"/>
      <point x="600" y="56"/>
      <point x="600" y="168" type="curve" smooth="yes"/>
      <point x="600" y="249"/>
      <point x="530" y="293"/>
      <point x="378" y="344" type="curve" smooth="yes"/>
      <point x="236" y="393"/>
      <point x="164" y="431"/>
      <point x="164" y="479" type="curve" smooth="yes"/>
      <point x="164" y="549"/>
      <point x="228" y="603"/>
      <point x="339" y="603" type="curve" smooth="yes"/>
      <point x="434" y="603"/>
      <point x="512" y="583"/>
      <point x="556" y="470" type="curve" smooth="yes"/>
      <point x="559" y="463"/>
      <point x="570" y="457"/>
      <point x="579" y="457" type="curve" smooth="yes"/>
      <point x="585" y="457"/>
      <point x="590" y="460"/>
      <point x="590" y="467" type="curve" smooth="yes"/>
      <point x="590" y="497"/>
      <point x="574" y="545"/>
      <point x="562" y="570" type="curve" smooth="yes"/>
      <point x="558" y="580"/>
      <point x="546" y="590"/>
      <point x="532" y="594" type="curve" smooth="yes"/>
      <point x="501" y="602"/>
      <point x="449" y="614"/>
      <point x="380" y="614" type="curve" smooth="yes"/>
      <point x="178" y="614"/>
      <point x="84" y="538"/>
      <point x="84" y="444" type="curve" smooth="yes"/>
      <point x="84" y="364"/>
      <point x="169" y="324"/>
      <point x="324" y="270" type="curve" smooth="yes"/>
      <point x="451" y="225"/>
      <point x="514" y="201"/>
      <point x="514" y="127" type="curve" smooth="yes"/>
      <point x="514" y="55"/>
      <point x="444" y="-6"/>
      <point x="330" y="-6" type="curve" smooth="yes"/>
      <point x="194" y="-6"/>
      <point x="124" y="21"/>
      <point x="87" y="160" type="curve" smooth="yes"/>
      <point x="85" y="166"/>
      <point x="76" y="171"/>
      <point x="72" y="171" type="curve" smooth="yes"/>
      <point x="65" y="171"/>
      <point x="56" y="166"/>
      <point x="56" y="157" type="curve"/>
      <point x="57" y="128"/>
      <point x="60" y="77"/>
      <point x="70" y="49" type="curve" smooth="yes"/>
      <point x="73" y="41"/>
      <point x="82" y="33"/>
      <point x="89" y="29" type="curve"/>
      <point x="141" y="0"/>
      <point x="210" y="-16"/>
    </contour>
  </outline>
</glyph>
<glyph name="T" format="1">
  <advance width="928"/>
  <unicode hex="0054"/>
  <outline>
    <contour>
      <point x="321" y="-4" type="curve" smooth="yes"/>
      <point x="385" y="-4"/>
      <point x="409" y="-3"/>
      <point x="467" y="-3" type="curve" smooth="yes"/>
      <point x="519" y="-3"/>
      <point x="542" y="-4"/>
      <point x="605" y="-4" type="curve" smooth="yes"/>
      <point x="625" y="-4"/>
      <point x="640" y="-3"/>
      <point x="640" y="0" type="curve" smooth="yes"/>
      <point x="640" y="3"/>
      <point x="628" y="6"/>
      <point x="600" y="7" type="curve" smooth="yes"/>
      <point x="533" y="11"/>
      <point x="505" y="17"/>
      <point x="505" y="53" type="curve" smooth="yes"/>
      <point x="505" y="498" type="line" smooth="yes"/>
      <point x="505" y="578"/>
      <point x="517" y="585"/>
      <point x="556" y="585" type="curve" smooth="yes"/>
      <point x="785" y="586" type="line" smooth="yes"/>
      <point x="850" y="586"/>
      <point x="872" y="561"/>
      <point x="878" y="523" type="curve" smooth="yes"/>
      <point x="882" y="488"/>
      <point x="886" y="467"/>
      <point x="896" y="467" type="curve" smooth="yes"/>
      <point x="907" y="467"/>
      <point x="912" y="489"/>
      <point x="912" y="507" type="curve" smooth="yes"/>
      <point x="912" y="519" type="line" smooth="yes"/>
      <point x="912" y="545"/>
      <point x="917" y="541"/>
      <point x="924" y="578" type="curve" smooth="yes"/>
      <point x="925" y="584"/>
      <point x="928" y="599"/>
      <point x="928" y="606" type="curve" smooth="yes"/>
      <point x="928" y="616"/>
      <point x="925" y="629"/>
      <point x="921" y="629" type="curve" smooth="yes"/>
      <point x="904" y="629"/>
      <point x="897" y="617"/>
      <point x="881" y="609" type="curve" smooth="yes"/>
      <point x="859" y="598"/>
      <point x="833" y="594"/>
      <point x="786" y="594" type="curve" smooth="yes"/>
      <point x="165" y="594" type="line" smooth="yes"/>
      <point x="140" y="594"/>
      <point x="110" y="600"/>
      <point x="103" y="614" type="curve" smooth="yes"/>
      <point x="97" y="625"/>
      <point x="84" y="646"/>
      <point x="80" y="646" type="curve" smooth="yes"/>
      <point x="75" y="646"/>
      <point x="65" y="645"/>
      <point x="61" y="623" type="curve" smooth="yes"/>
      <point x="54" y="581"/>
      <point x="48" y="556"/>
      <point x="26" y="518" type="curve" smooth="yes"/>
      <point x="23" y="512"/>
      <point x="21" y="499"/>
      <point x="21" y="492" type="curve" smooth="yes"/>
      <point x="21" y="485"/>
      <point x="26" y="478"/>
      <point x="31" y="478" type="curve" smooth="yes"/>
      <point x="45" y="478"/>
      <point x="64" y="502"/>
      <point x="78" y="531" type="curve" smooth="yes"/>
      <point x="95" y="569"/>
      <point x="125" y="586"/>
      <point x="158" y="586" type="curve" smooth="yes"/>
      <point x="338" y="586" type="line" smooth="yes"/>
      <point x="365" y="586"/>
      <point x="381" y="584"/>
      <point x="396" y="579" type="curve" smooth="yes"/>
      <point x="409" y="575"/>
      <point x="414" y="557"/>
      <point x="414" y="496" type="curve" smooth="yes"/>
      <point x="414" y="52" type="line" smooth="yes"/>
      <point x="414" y="15"/>
      <point x="383" y="9"/>
      <point x="325" y="5" type="curve" smooth="yes"/>
      <point x="298" y="4"/>
      <point x="286" y="2"/>
      <point x="286" y="-1" type="curve" smooth="yes"/>
      <point x="286" y="-4"/>
      <point x="301" y="-4"/>
    </contour>
  </outline>
</glyph>
<glyph name="U" format="1">
  <advance width="1014"/>
  <unicode hex="0055"/>
  <outline>
    <contour>
      <point x="502" y="-14" type="curve" smooth="yes"/>
      <point x="709" y="-14"/>
      <point x="857" y="93"/>
      <point x="866" y="252" type="curve" smooth="yes"/>
      <point x="870" y="323"/>
      <point x="870" y="397"/>
      <point x="880" y="535" type="curve" smooth="yes"/>
      <point x="885" y="580"/>
      <point x="900" y="584"/>
      <point x="957" y="590" type="curve" smooth="yes"/>
      <point x="988" y="593"/>
      <point x="1001" y="595"/>
      <point x="1001" y="598" type="curve" smooth="yes"/>
      <point x="1001" y="600"/>
      <point x="988" y="601"/>
      <point x="971" y="601" type="curve" smooth="yes"/>
      <point x="935" y="601"/>
      <point x="910" y="598"/>
      <point x="873" y="598" type="curve" smooth="yes"/>
      <point x="836" y="598"/>
      <point x="819" y="600"/>
      <point x="778" y="601" type="curve" smooth="yes"/>
      <point x="762" y="601"/>
      <point x="748" y="602"/>
      <point x="748" y="599" type="curve" smooth="yes"/>
      <point x="748" y="596"/>
      <point x="769" y="595"/>
      <point x="792" y="591" type="curve" smooth="yes"/>
      <point x="837" y="584"/>
      <point x="857" y="579"/>
      <point x="860" y="524" type="curve" smooth="yes"/>
      <point x="863" y="410"/>
      <point x="863" y="324"/>
      <point x="863" y="285" type="curve" smooth="yes"/>
      <point x="863" y="140"/>
      <point x="772" y="36"/>
      <point x="552" y="36" type="curve" smooth="yes"/>
      <point x="357" y="36"/>
      <point x="221" y="103"/>
      <point x="221" y="258" type="curve" smooth="yes"/>
      <point x="221" y="535" type="line" smooth="yes"/>
      <point x="221" y="581"/>
      <point x="236" y="586"/>
      <point x="294" y="591" type="curve" smooth="yes"/>
      <point x="321" y="592"/>
      <point x="334" y="595"/>
      <point x="334" y="599" type="curve" smooth="yes"/>
      <point x="334" y="601"/>
      <point x="319" y="602"/>
      <point x="299" y="602" type="curve" smooth="yes"/>
      <point x="256" y="601"/>
      <point x="226" y="598"/>
      <point x="183" y="598" type="curve" smooth="yes"/>
      <point x="134" y="598"/>
      <point x="105" y="601"/>
      <point x="57" y="601" type="curve" smooth="yes"/>
      <point x="37" y="601"/>
      <point x="22" y="601"/>
      <point x="22" y="599" type="curve" smooth="yes"/>
      <point x="22" y="596"/>
      <point x="33" y="594"/>
      <point x="60" y="593" type="curve" smooth="yes"/>
      <point x="120" y="589"/>
      <point x="131" y="582"/>
      <point x="131" y="530" type="curve" smooth="yes"/>
      <point x="131" y="236" type="line" smooth="yes"/>
      <point x="131" y="86"/>
      <point x="255" y="-14"/>
    </contour>
  </outline>
</glyph>
<glyph name="X" format="1">
  <advance width="1001"/>
  <unicode hex="0058"/>
  <outline>
    <contour>
      <point x="34" y="-4" type="curve" smooth="yes"/>
      <point x="80" y="-4"/>
      <point x="147" y="0"/>
      <point x="210" y="0" type="curve" smooth="yes"/>
      <point x="244" y="0"/>
      <point x="278" y="0"/>
      <point x="296" y="0" type="curve" smooth="yes"/>
      <point x="312" y="0"/>
      <point x="324" y="1"/>
      <point x="324" y="4" type="curve" smooth="yes"/>
      <point x="324" y="7"/>
      <point x="314" y="9"/>
      <point x="292" y="12" type="curve"/>
      <point x="243" y="18"/>
      <point x="219" y="15"/>
      <point x="219" y="27" type="curve" smooth="yes"/>
      <point x="218" y="36"/>
      <point x="228" y="51"/>
      <point x="250" y="74" type="curve" smooth="yes"/>
      <point x="466" y="260" type="line" smooth="yes"/>
      <point x="476" y="268"/>
      <point x="482" y="269"/>
      <point x="497" y="255" type="curve" smooth="yes"/>
      <point x="692" y="78" type="line"/>
      <point x="704" y="67"/>
      <point x="710" y="57"/>
      <point x="710" y="47" type="curve" smooth="yes"/>
      <point x="710" y="31"/>
      <point x="704" y="19"/>
      <point x="655" y="14" type="curve" smooth="yes"/>
      <point x="637" y="12"/>
      <point x="612" y="10"/>
      <point x="612" y="6" type="curve" smooth="yes"/>
      <point x="612" y="3"/>
      <point x="628" y="2"/>
      <point x="650" y="2" type="curve" smooth="yes"/>
      <point x="683" y="2"/>
      <point x="707" y="3"/>
      <point x="759" y="3" type="curve" smooth="yes"/>
      <point x="822" y="3"/>
      <point x="913" y="-3"/>
      <point x="951" y="-3" type="curve" smooth="yes"/>
      <point x="973" y="-3"/>
      <point x="989" y="-2"/>
      <point x="989" y="1" type="curve" smooth="yes"/>
      <point x="989" y="5"/>
      <point x="975" y="7"/>
      <point x="943" y="9" type="curve" smooth="yes"/>
      <point x="905" y="10"/>
      <point x="848" y="49"/>
      <point x="808" y="84" type="curve" smooth="yes"/>
      <point x="561" y="314" type="line"/>
      <point x="551" y="327"/>
      <point x="557" y="332"/>
      <point x="579" y="351" type="curve" smooth="yes"/>
      <point x="754" y="515" type="line" smooth="yes"/>
      <point x="819" y="578"/>
      <point x="875" y="587"/>
      <point x="939" y="590" type="curve" smooth="yes"/>
      <point x="971" y="592"/>
      <point x="985" y="594"/>
      <point x="985" y="598" type="curve" smooth="yes"/>
      <point x="985" y="601"/>
      <point x="968" y="602"/>
      <point x="945" y="602" type="curve" smooth="yes"/>
      <point x="907" y="602"/>
      <point x="840" y="600"/>
      <point x="785" y="600" type="curve" smooth="yes"/>
      <point x="757" y="600"/>
      <point x="730" y="600"/>
      <point x="696" y="600" type="curve" smooth="yes"/>
      <point x="672" y="600"/>
      <point x="655" y="599"/>
      <point x="655" y="596" type="curve" smooth="yes"/>
      <point x="655" y="592"/>
      <point x="682" y="588"/>
      <point x="702" y="588" type="curve" smooth="yes"/>
      <point x="754" y="590"/>
      <point x="774" y="573"/>
      <point x="774" y="559" type="curve" smooth="yes"/>
      <point x="774" y="549"/>
      <point x="761" y="536"/>
      <point x="745" y="519" type="curve" smooth="yes"/>
      <point x="562" y="347" type="line" smooth="yes"/>
      <point x="546" y="332"/>
      <point x="539" y="329"/>
      <point x="518" y="348" type="curve" smooth="yes"/>
      <point x="329" y="526" type="line" smooth="yes"/>
      <point x="303" y="551"/>
      <point x="292" y="566"/>
      <point x="292" y="575" type="curve" smooth="yes"/>
      <point x="292" y="588"/>
      <point x="325" y="594"/>
      <point x="356" y="593" type="curve" smooth="yes"/>
      <point x="377" y="593"/>
      <point x="387" y="597"/>
      <point x="387" y="600" type="curve" smooth="yes"/>
      <point x="387" y="603"/>
      <point x="374" y="604"/>
      <point x="356" y="604" type="curve" smooth="yes"/>
      <point x="337" y="604"/>
      <point x="297" y="603"/>
      <point x="258" y="603" type="curve" smooth="yes"/>
      <point x="191" y="603"/>
      <point x="109" y="605"/>
      <point x="64" y="605" type="curve" smooth="yes"/>
      <point x="42" y="605"/>
      <point x="25" y="604"/>
      <point x="25" y="601" type="curve" smooth="yes"/>
      <point x="25" y="598"/>
      <point x="42" y="595"/>
      <point x="71" y="593" type="curve" smooth="yes"/>
      <point x="113" y="589"/>
      <point x="150" y="566"/>
      <point x="222" y="505" type="curve" smooth="yes"/>
      <point x="439" y="303" type="line" smooth="yes"/>
      <point x="468" y="278"/>
      <point x="453" y="262"/>
      <point x="431" y="243" type="curve"/>
      <point x="248" y="96" type="line" smooth="yes"/>
      <point x="188" y="47"/>
      <point x="88" y="16"/>
      <point x="48" y="13" type="curve" smooth="yes"/>
      <point x="8" y="8"/>
      <point x="-7" y="4"/>
      <point x="-7" y="0" type="curve" smooth="yes"/>
      <point x="-7" y="-3"/>
      <point x="10" y="-4"/>
    </contour>
  </outline>
</glyph>
<glyph name="Y" format="1">
  <advance width="775"/>
  <unicode hex="0059"/>
  <outline>
    <contour>
      <point x="272" y="-5" type="curve" smooth="yes"/>
      <point x="334" y="-5"/>
      <point x="361" y="-4"/>
      <point x="419" y="-4" type="curve" smooth="yes"/>
      <point x="472" y="-4"/>
      <point x="492" y="-5"/>
      <point x="554" y="-5" type="curve" smooth="yes"/>
      <point x="573" y="-5"/>
      <point x="587" y="-4"/>
      <point x="587" y="-2" type="curve" smooth="yes"/>
      <point x="587" y="0"/>
      <point x="576" y="2"/>
      <point x="549" y="3" type="curve" smooth="yes"/>
      <point x="491" y="5"/>
      <point x="457" y="13"/>
      <point x="457" y="38" type="curve" smooth="yes"/>
      <point x="457" y="263" type="line" smooth="yes"/>
      <point x="457" y="299"/>
      <point x="455" y="306"/>
      <point x="492" y="346" type="curve" smooth="yes"/>
      <point x="554" y="413"/>
      <point x="582" y="447"/>
      <point x="649" y="521" type="curve" smooth="yes"/>
      <point x="692" y="570"/>
      <point x="724" y="585"/>
      <point x="760" y="592" type="curve" smooth="yes"/>
      <point x="785" y="595"/>
      <point x="818" y="596"/>
      <point x="818" y="599" type="curve" smooth="yes"/>
      <point x="818" y="602"/>
      <point x="803" y="603"/>
      <point x="782" y="603" type="curve" smooth="yes"/>
      <point x="753" y="603"/>
      <point x="712" y="602"/>
      <point x="660" y="602" type="curve" smooth="yes"/>
      <point x="624" y="602"/>
      <point x="603" y="602"/>
      <point x="566" y="602" type="curve" smooth="yes"/>
      <point x="544" y="602"/>
      <point x="529" y="601"/>
      <point x="529" y="599" type="curve" smooth="yes"/>
      <point x="529" y="597"/>
      <point x="552" y="594"/>
      <point x="569" y="593" type="curve" smooth="yes"/>
      <point x="620" y="591"/>
      <point x="645" y="579"/>
      <point x="644" y="556" type="curve" smooth="yes"/>
      <point x="644" y="548"/>
      <point x="638" y="536"/>
      <point x="626" y="524" type="curve" smooth="yes"/>
      <point x="580" y="472"/>
      <point x="533" y="404"/>
      <point x="493" y="362" type="curve" smooth="yes"/>
      <point x="468" y="336"/>
      <point x="455" y="311"/>
      <point x="444" y="311" type="curve" smooth="yes"/>
      <point x="435" y="311"/>
      <point x="424" y="322"/>
      <point x="405" y="346" type="curve" smooth="yes"/>
      <point x="244" y="552" type="line" smooth="yes"/>
      <point x="234" y="562"/>
      <point x="226" y="570"/>
      <point x="226" y="578" type="curve" smooth="yes"/>
      <point x="226" y="588"/>
      <point x="252" y="591"/>
      <point x="292" y="592" type="curve" smooth="yes"/>
      <point x="322" y="594"/>
      <point x="338" y="595"/>
      <point x="338" y="598" type="curve" smooth="yes"/>
      <point x="338" y="600"/>
      <point x="320" y="601"/>
      <point x="296" y="601" type="curve" smooth="yes"/>
      <point x="267" y="601"/>
      <point x="232" y="600"/>
      <point x="188" y="600" type="curve" smooth="yes"/>
      <point x="124" y="600"/>
      <point x="84" y="601"/>
      <point x="42" y="601" type="curve" smooth="yes"/>
      <point x="17" y="601"/>
      <point x="0" y="600"/>
      <point x="0" y="598" type="curve" smooth="yes"/>
      <point x="0" y="595"/>
      <point x="15" y="598"/>
      <point x="47" y="592" type="curve" smooth="yes"/>
      <point x="87" y="585"/>
      <point x="115" y="563"/>
      <point x="135" y="541" type="curve" smooth="yes"/>
      <point x="334" y="304" type="line"/>
      <point x="343" y="294"/>
      <point x="367" y="261"/>
      <point x="367" y="236" type="curve" smooth="yes"/>
      <point x="367" y="38" type="line" smooth="yes"/>
      <point x="367" y="12"/>
      <point x="335" y="5"/>
      <point x="276" y="3" type="curve" smooth="yes"/>
      <point x="250" y="2"/>
      <point x="238" y="0"/>
      <point x="238" y="-2" type="curve" smooth="yes"/>
      <point x="238" y="-4"/>
      <point x="252" y="-5"/>
    </contour>
  </outline>
</glyph>
<glyph name="b" format="1">
  <advance width="718"/>
  <unicode hex="0062"/>
  <outline>
    <contour>
      <point x="356" y="-14" type="curve" smooth="yes"/>
      <point x="541" y="-14"/>
      <point x="669" y="87"/>
      <point x="669" y="233" type="curve" smooth="yes"/>
      <point x="669" y="352"/>
      <point x="556" y="444"/>
      <point x="413" y="444" type="curve" smooth="yes"/>
      <point x="351" y="444"/>
      <point x="264" y="419"/>
      <point x="176" y="383" type="curve"/>
      <point x="168" y="384"/>
      <point x="166" y="391"/>
      <point x="166" y="419" type="curve" smooth="yes"/>
      <point x="166" y="542" type="line" smooth="yes"/>
      <point x="166" y="598"/>
      <point x="169" y="642"/>
      <point x="169" y="647" type="curve" smooth="yes"/>
      <point x="169" y="651"/>
      <point x="166" y="654"/>
      <point x="162" y="654" type="curve" smooth="yes"/>
      <point x="160" y="654"/>
      <point x="156" y="654"/>
      <point x="151" y="651" type="curve" smooth="yes"/>
      <point x="132" y="641"/>
      <point x="67" y="624"/>
      <point x="35" y="619" type="curve" smooth="yes"/>
      <point x="29" y="618"/>
      <point x="22" y="617"/>
      <point x="22" y="614" type="curve" smooth="yes"/>
      <point x="22" y="613"/>
      <point x="30" y="610"/>
      <point x="37" y="610" type="curve" smooth="yes"/>
      <point x="84" y="604"/>
      <point x="89" y="603"/>
      <point x="89" y="570" type="curve" smooth="yes"/>
      <point x="89" y="81" type="line" smooth="yes"/>
      <point x="89" y="56"/>
      <point x="79" y="21"/>
      <point x="79" y="9" type="curve" smooth="yes"/>
      <point x="79" y="2"/>
      <point x="82" y="-4"/>
      <point x="87" y="-4" type="curve" smooth="yes"/>
      <point x="89" y="-4"/>
      <point x="91" y="-1"/>
      <point x="93" y="2" type="curve" smooth="yes"/>
      <point x="97" y="9"/>
      <point x="106" y="15"/>
      <point x="119" y="15" type="curve" smooth="yes"/>
      <point x="130" y="15"/>
      <point x="177" y="7"/>
      <point x="222" y="-1" type="curve" smooth="yes"/>
      <point x="262" y="-8"/>
      <point x="310" y="-14"/>
    </contour>
    <contour>
      <point x="388" y="-6" type="curve" smooth="yes"/>
      <point x="266" y="-6"/>
      <point x="166" y="37"/>
      <point x="166" y="126" type="curve" smooth="yes"/>
      <point x="166" y="363" type="line"/>
      <point x="213" y="395"/>
      <point x="278" y="418"/>
      <point x="363" y="418" type="curve" smooth="yes"/>
      <point x="519" y="418"/>
      <point x="587" y="305"/>
      <point x="587" y="206" type="curve" smooth="yes"/>
      <point x="587" y="85"/>
      <point x="511" y="-6"/>
    </contour>
  </outline>
</glyph>
<glyph name="c" format="1">
  <advance width="568"/>
  <unicode hex="0063"/>
  <outline>
    <contour>
      <point x="304" y="-15" type="curve" smooth="yes"/>
      <point x="390" y="-15"/>
      <point x="455" y="7"/>
      <point x="500" y="52" type="curve" smooth="yes"/>
      <point x="515" y="67"/>
      <point x="525" y="85"/>
      <point x="525" y="96" type="curve" smooth="yes"/>
      <point x="526" y="101"/>
      <point x="525" y="103"/>
      <point x="521" y="103" type="curve" smooth="yes"/>
      <point x="519" y="103"/>
      <point x="518" y="100"/>
      <point x="514" y="96" type="curve" smooth="yes"/>
      <point x="464" y="58"/>
      <point x="421" y="40"/>
      <point x="357" y="40" type="curve" smooth="yes"/>
      <point x="222" y="40"/>
      <point x="125" y="116"/>
      <point x="125" y="228" type="curve" smooth="yes"/>
      <point x="125" y="349"/>
      <point x="194" y="435"/>
      <point x="292" y="435" type="curve" smooth="yes"/>
      <point x="339" y="435"/>
      <point x="383" y="404"/>
      <point x="420" y="373" type="curve" smooth="yes"/>
      <point x="448" y="359"/>
      <point x="467" y="349"/>
      <point x="481" y="349" type="curve" smooth="yes"/>
      <point x="501" y="349"/>
      <point x="527" y="371"/>
      <point x="527" y="389" type="curve" smooth="yes"/>
      <point x="527" y="397"/>
      <point x="522" y="403"/>
      <point x="511" y="409" type="curve" smooth="yes"/>
      <point x="466" y="433"/>
      <point x="404" y="445"/>
      <point x="343" y="445" type="curve" smooth="yes"/>
      <point x="176" y="445"/>
      <point x="49" y="333"/>
      <point x="49" y="194" type="curve" smooth="yes"/>
      <point x="49" y="75"/>
      <point x="160" y="-15"/>
    </contour>
  </outline>
</glyph>
<glyph name="e" format="1">
  <advance width="557"/>
  <unicode hex="0065"/>
  <outline>
    <contour>
      <point x="305" y="-16" type="curve" smooth="yes"/>
      <point x="385" y="-16"/>
      <point x="460" y="18"/>
      <point x="504" y="72" type="curve" smooth="yes"/>
      <point x="516" y="83"/>
      <point x="522" y="91"/>
      <point x="522" y="97" type="curve" smooth="yes"/>
      <point x="522" y="101"/>
      <point x="521" y="103"/>
      <point x="516" y="103" type="curve" smooth="yes"/>
      <point x="512" y="103"/>
      <point x="511" y="103"/>
      <point x="503" y="96" type="curve" smooth="yes"/>
      <point x="467" y="63"/>
      <point x="410" y="45"/>
      <point x="345" y="45" type="curve" smooth="yes"/>
      <point x="204" y="45"/>
      <point x="113" y="129"/>
      <point x="113" y="236" type="curve" smooth="yes"/>
      <point x="113" y="269"/>
      <point x="123" y="278"/>
      <point x="151" y="278" type="curve" smooth="yes"/>
      <point x="472" y="278" type="line" smooth="yes"/>
      <point x="502" y="278"/>
      <point x="515" y="288"/>
      <point x="515" y="311" type="curve" smooth="yes"/>
      <point x="515" y="392"/>
      <point x="437" y="445"/>
      <point x="319" y="445" type="curve" smooth="yes"/>
      <point x="164" y="445"/>
      <point x="42" y="345"/>
      <point x="42" y="218" type="curve" smooth="yes"/>
      <point x="42" y="78"/>
      <point x="147" y="-16"/>
    </contour>
    <contour>
      <point x="154" y="288" type="line" smooth="yes"/>
      <point x="140" y="288"/>
      <point x="134" y="292"/>
      <point x="134" y="303" type="curve" smooth="yes"/>
      <point x="134" y="366"/>
      <point x="222" y="437"/>
      <point x="300" y="437" type="curve" smooth="yes"/>
      <point x="385" y="437"/>
      <point x="444" y="389"/>
      <point x="444" y="328" type="curve" smooth="yes"/>
      <point x="444" y="307"/>
      <point x="441" y="296"/>
      <point x="431" y="295" type="curve" smooth="yes"/>
      <point x="394" y="289"/>
      <point x="360" y="288"/>
      <point x="306" y="288" type="curve" smooth="yes"/>
    </contour>
  </outline>
</glyph>
<glyph name="g" format="1">
  <advance width="621"/>
  <unicode hex="0067"/>
  <outline>
    <contour>
      <point x="279" y="-213" type="curve" smooth="yes"/>
      <point x="433" y="-213"/>
      <point x="598" y="-123"/>
      <point x="598" y="-38" type="curve" smooth="yes"/>
      <point x="598" y="16"/>
      <point x="514" y="42"/>
      <point x="337" y="48" type="curve" smooth="yes"/>
      <point x="213" y="52"/>
      <point x="126" y="59"/>
      <point x="126" y="87" type="curve" smooth="yes"/>
      <point x="126" y="98"/>
      <point x="164" y="115"/>
      <point x="205" y="127" type="curve"/>
      <point x="182" y="142" type="line"/>
      <point x="165" y="126"/>
      <point x="160" y="124"/>
      <point x="91" y="94" type="curve" smooth="yes"/>
      <point x="67" y="82"/>
      <point x="57" y="73"/>
      <point x="57" y="61" type="curve" smooth="yes"/>
      <point x="57" y="7"/>
      <point x="116" y="-7"/>
      <point x="295" y="-17" type="curve" smooth="yes"/>
      <point x="470" y="-26"/>
      <point x="529" y="-29"/>
      <point x="529" y="-77" type="curve" smooth="yes"/>
      <point x="529" y="-116"/>
      <point x="497" y="-151"/>
      <point x="446" y="-172" type="curve" smooth="yes"/>
      <point x="411" y="-187"/>
      <point x="360" y="-194"/>
      <point x="295" y="-194" type="curve" smooth="yes"/>
      <point x="183" y="-194"/>
      <point x="95" y="-159"/>
      <point x="95" y="-114" type="curve" smooth="yes"/>
      <point x="95" y="-68"/>
      <point x="126" y="-40"/>
      <point x="213" y="-6" type="curve"/>
      <point x="194" y="8" type="line"/>
      <point x="145" y="-15"/>
      <point x="94" y="-38"/>
      <point x="66" y="-51" type="curve" smooth="yes"/>
      <point x="30" y="-68"/>
      <point x="15" y="-86"/>
      <point x="15" y="-114" type="curve" smooth="yes"/>
      <point x="15" y="-175"/>
      <point x="116" y="-213"/>
    </contour>
    <contour>
      <point x="297" y="113" type="curve" smooth="yes"/>
      <point x="202" y="113"/>
      <point x="134" y="170"/>
      <point x="134" y="284" type="curve" smooth="yes"/>
      <point x="134" y="378"/>
      <point x="204" y="439"/>
      <point x="286" y="439" type="curve" smooth="yes"/>
      <point x="385" y="439"/>
      <point x="447" y="402"/>
      <point x="447" y="292" type="curve" smooth="yes"/>
      <point x="447" y="181"/>
      <point x="388" y="113"/>
    </contour>
    <contour>
      <point x="287" y="106" type="curve" smooth="yes"/>
      <point x="416" y="106"/>
      <point x="516" y="200"/>
      <point x="516" y="313" type="curve" smooth="yes"/>
      <point x="516" y="340"/>
      <point x="520" y="368"/>
      <point x="524" y="383" type="curve" smooth="yes"/>
      <point x="527" y="392"/>
      <point x="541" y="397"/>
      <point x="566" y="397" type="curve" smooth="yes"/>
      <point x="604" y="397" type="line"/>
      <point x="607" y="397"/>
      <point x="611" y="398"/>
      <point x="615" y="399" type="curve" smooth="yes"/>
      <point x="624" y="401"/>
      <point x="630" y="402"/>
      <point x="630" y="407" type="curve" smooth="yes"/>
      <point x="630" y="409"/>
      <point x="621" y="413"/>
      <point x="611" y="413" type="curve" smooth="yes"/>
      <point x="597" y="413"/>
      <point x="555" y="412"/>
      <point x="532" y="412" type="curve" smooth="yes"/>
      <point x="504" y="412"/>
      <point x="482" y="413"/>
      <point x="437" y="423" type="curve" smooth="yes"/>
      <point x="397" y="431"/>
      <point x="360" y="446"/>
      <point x="304" y="446" type="curve" smooth="yes"/>
      <point x="174" y="446"/>
      <point x="55" y="374"/>
      <point x="55" y="273" type="curve" smooth="yes"/>
      <point x="55" y="182"/>
      <point x="168" y="106"/>
    </contour>
  </outline>
</glyph>
<glyph name="h" format="1">
  <advance width="740"/>
  <unicode hex="0068"/>
  <outline>
    <contour>
      <point x="49" y="-3" type="curve" smooth="yes"/>
      <point x="95" y="-3"/>
      <point x="101" y="-2"/>
      <point x="141" y="-2" type="curve" smooth="yes"/>
      <point x="181" y="-2"/>
      <point x="183" y="-3"/>
      <point x="229" y="-3" type="curve" smooth="yes"/>
      <point x="247" y="-3"/>
      <point x="252" y="-2"/>
      <point x="252" y="1" type="curve" smooth="yes"/>
      <point x="252" y="3"/>
      <point x="243" y="4"/>
      <point x="226" y="5" type="curve" smooth="yes"/>
      <point x="202" y="8"/>
      <point x="179" y="10"/>
      <point x="179" y="18" type="curve" smooth="yes"/>
      <point x="179" y="330" type="line" smooth="yes"/>
      <point x="179" y="358"/>
      <point x="186" y="370"/>
      <point x="205" y="382" type="curve" smooth="yes"/>
      <point x="248" y="402"/>
      <point x="317" y="414"/>
      <point x="391" y="414" type="curve" smooth="yes"/>
      <point x="482" y="414"/>
      <point x="556" y="373"/>
      <point x="556" y="320" type="curve" smooth="yes"/>
      <point x="556" y="18" type="line" smooth="yes"/>
      <point x="556" y="10"/>
      <point x="532" y="7"/>
      <point x="509" y="5" type="curve" smooth="yes"/>
      <point x="491" y="4"/>
      <point x="483" y="3"/>
      <point x="483" y="1" type="curve" smooth="yes"/>
      <point x="483" y="-2"/>
      <point x="490" y="-3"/>
      <point x="505" y="-3" type="curve" smooth="yes"/>
      <point x="551" y="-3"/>
      <point x="555" y="-2"/>
      <point x="595" y="-2" type="curve" smooth="yes"/>
      <point x="635" y="-2"/>
      <point x="640" y="-3"/>
      <point x="685" y="-3" type="curve" smooth="yes"/>
      <point x="700" y="-3"/>
      <point x="708" y="-2"/>
      <point x="708" y="1" type="curve" smooth="yes"/>
      <point x="708" y="4"/>
      <point x="698" y="4"/>
      <point x="681" y="5" type="curve" smooth="yes"/>
      <point x="658" y="8"/>
      <point x="633" y="10"/>
      <point x="633" y="18" type="curve" smooth="yes"/>
      <point x="633" y="307" type="line" smooth="yes"/>
      <point x="633" y="385"/>
      <point x="553" y="444"/>
      <point x="446" y="444" type="curve" smooth="yes"/>
      <point x="334" y="444"/>
      <point x="239" y="402"/>
      <point x="171" y="371" type="curve"/>
      <point x="188" y="378" type="line"/>
      <point x="181" y="389"/>
      <point x="179" y="394"/>
      <point x="179" y="418" type="curve" smooth="yes"/>
      <point x="179" y="511" type="line" smooth="yes"/>
      <point x="179" y="618"/>
      <point x="188" y="635"/>
      <point x="188" y="647" type="curve" smooth="yes"/>
      <point x="188" y="651"/>
      <point x="185" y="654"/>
      <point x="181" y="654" type="curve" smooth="yes"/>
      <point x="179" y="654"/>
      <point x="177" y="653"/>
      <point x="174" y="652" type="curve" smooth="yes"/>
      <point x="138" y="636"/>
      <point x="80" y="622"/>
      <point x="49" y="619" type="curve" smooth="yes"/>
      <point x="42" y="619"/>
      <point x="40" y="617"/>
      <point x="40" y="615" type="curve" smooth="yes"/>
      <point x="40" y="613"/>
      <point x="43" y="611"/>
      <point x="50" y="611" type="curve" smooth="yes"/>
      <point x="91" y="609"/>
      <point x="103" y="599"/>
      <point x="103" y="588" type="curve" smooth="yes"/>
      <point x="103" y="18" type="line" smooth="yes"/>
      <point x="103" y="10"/>
      <point x="76" y="8"/>
      <point x="53" y="5" type="curve" smooth="yes"/>
      <point x="33" y="4"/>
      <point x="27" y="3"/>
      <point x="27" y="1" type="curve" smooth="yes"/>
      <point x="27" y="-2"/>
      <point x="36" y="-3"/>
    </contour>
  </outline>
</glyph>
<glyph name="i" format="1">
  <advance width="289"/>
  <unicode hex="0069"/>
  <outline>
    <contour>
      <point x="56" y="-3" type="curve" smooth="yes"/>
      <point x="101" y="-3"/>
      <point x="108" y="2"/>
      <point x="148" y="2" type="curve" smooth="yes"/>
      <point x="188" y="2"/>
      <point x="195" y="-3"/>
      <point x="239" y="-3" type="curve" smooth="yes"/>
      <point x="254" y="-3"/>
      <point x="262" y="0"/>
      <point x="262" y="1" type="curve" smooth="yes"/>
      <point x="262" y="2"/>
      <point x="251" y="6"/>
      <point x="236" y="7" type="curve" smooth="yes"/>
      <point x="209" y="9"/>
      <point x="186" y="11"/>
      <point x="186" y="28" type="curve" smooth="yes"/>
      <point x="186" y="324" type="line" smooth="yes"/>
      <point x="186" y="364"/>
      <point x="195" y="433"/>
      <point x="195" y="451" type="curve" smooth="yes"/>
      <point x="195" y="455"/>
      <point x="192" y="459"/>
      <point x="188" y="459" type="curve" smooth="yes"/>
      <point x="184" y="459"/>
      <point x="177" y="456"/>
      <point x="172" y="451" type="curve" smooth="yes"/>
      <point x="149" y="431"/>
      <point x="119" y="408"/>
      <point x="58" y="395" type="curve" smooth="yes"/>
      <point x="52" y="393"/>
      <point x="48" y="392"/>
      <point x="48" y="390" type="curve" smooth="yes"/>
      <point x="48" y="387"/>
      <point x="52" y="385"/>
      <point x="59" y="384" type="curve" smooth="yes"/>
      <point x="92" y="377"/>
      <point x="110" y="362"/>
      <point x="110" y="330" type="curve" smooth="yes"/>
      <point x="110" y="28" type="line" smooth="yes"/>
      <point x="110" y="12"/>
      <point x="88" y="9"/>
      <point x="60" y="7" type="curve" smooth="yes"/>
      <point x="45" y="6"/>
      <point x="34" y="3"/>
      <point x="34" y="1" type="curve" smooth="yes"/>
      <point x="34" y="0"/>
      <point x="43" y="-3"/>
    </contour>
    <contour>
      <point x="147" y="539" type="curve" smooth="yes"/>
      <point x="178" y="539"/>
      <point x="201" y="561"/>
      <point x="201" y="589" type="curve" smooth="yes"/>
      <point x="201" y="618"/>
      <point x="178" y="640"/>
      <point x="147" y="640" type="curve" smooth="yes"/>
      <point x="117" y="640"/>
      <point x="94" y="618"/>
      <point x="94" y="589" type="curve" smooth="yes"/>
      <point x="94" y="561"/>
      <point x="117" y="539"/>
    </contour>
  </outline>
</glyph>
<glyph name="k" format="1">
  <advance width="670"/>
  <unicode hex="006B"/>
  <outline>
    <contour>
      <point x="59" y="-3" type="curve" smooth="yes"/>
      <point x="104" y="-3"/>
      <point x="108" y="2"/>
      <point x="149" y="2" type="curve" smooth="yes"/>
      <point x="188" y="2"/>
      <point x="184" y="-3"/>
      <point x="229" y="-3" type="curve" smooth="yes"/>
      <point x="236" y="-3"/>
      <point x="262" y="-3"/>
      <point x="262" y="1" type="curve" smooth="yes"/>
      <point x="262" y="4"/>
      <point x="245" y="5"/>
      <point x="230" y="6" type="curve" smooth="yes"/>
      <point x="197" y="8"/>
      <point x="181" y="8"/>
      <point x="181" y="37" type="curve" smooth="yes"/>
      <point x="180" y="88"/>
      <point x="179" y="112"/>
      <point x="179" y="135" type="curve" smooth="yes"/>
      <point x="179" y="158"/>
      <point x="180" y="196"/>
      <point x="181" y="215" type="curve"/>
      <point x="181" y="220"/>
      <point x="185" y="222"/>
      <point x="190" y="222" type="curve" smooth="yes"/>
      <point x="197" y="222"/>
      <point x="200" y="220"/>
      <point x="207" y="215" type="curve" smooth="yes"/>
      <point x="450" y="35" type="line"/>
      <point x="457" y="29"/>
      <point x="461" y="23"/>
      <point x="461" y="19" type="curve" smooth="yes"/>
      <point x="461" y="11"/>
      <point x="440" y="7"/>
      <point x="393" y="7" type="curve" smooth="yes"/>
      <point x="380" y="7"/>
      <point x="370" y="4"/>
      <point x="370" y="2" type="curve" smooth="yes"/>
      <point x="370" y="1"/>
      <point x="376" y="0"/>
      <point x="396" y="0" type="curve" smooth="yes"/>
      <point x="494" y="0"/>
      <point x="576" y="-3"/>
      <point x="651" y="-3" type="curve" smooth="yes"/>
      <point x="668" y="-3"/>
      <point x="680" y="-2"/>
      <point x="680" y="1" type="curve" smooth="yes"/>
      <point x="680" y="2"/>
      <point x="669" y="4"/>
      <point x="654" y="4" type="curve" smooth="yes"/>
      <point x="629" y="4"/>
      <point x="605" y="14"/>
      <point x="563" y="42" type="curve" smooth="yes"/>
      <point x="532" y="60"/>
      <point x="361" y="196"/>
      <point x="285" y="246" type="curve" smooth="yes"/>
      <point x="282" y="248"/>
      <point x="280" y="251"/>
      <point x="280" y="253" type="curve" smooth="yes"/>
      <point x="280" y="256"/>
      <point x="283" y="259"/>
      <point x="289" y="263" type="curve" smooth="yes"/>
      <point x="356" y="310"/>
      <point x="478" y="370"/>
      <point x="510" y="390" type="curve" smooth="yes"/>
      <point x="541" y="408"/>
      <point x="566" y="416"/>
      <point x="601" y="421" type="curve" smooth="yes"/>
      <point x="620" y="424"/>
      <point x="636" y="426"/>
      <point x="636" y="429" type="curve" smooth="yes"/>
      <point x="636" y="433"/>
      <point x="629" y="433"/>
      <point x="616" y="433" type="curve" smooth="yes"/>
      <point x="586" y="433"/>
      <point x="536" y="430"/>
      <point x="492" y="430" type="curve" smooth="yes"/>
      <point x="425" y="430" type="line" smooth="yes"/>
      <point x="405" y="430"/>
      <point x="394" y="428"/>
      <point x="394" y="426" type="curve" smooth="yes"/>
      <point x="394" y="425"/>
      <point x="398" y="423"/>
      <point x="411" y="423" type="curve" smooth="yes"/>
      <point x="450" y="423"/>
      <point x="466" y="416"/>
      <point x="466" y="403" type="curve" smooth="yes"/>
      <point x="466" y="397"/>
      <point x="462" y="392"/>
      <point x="452" y="387" type="curve" smooth="yes"/>
      <point x="399" y="344"/>
      <point x="331" y="300"/>
      <point x="248" y="254" type="curve" smooth="yes"/>
      <point x="223" y="240"/>
      <point x="203" y="233"/>
      <point x="189" y="233" type="curve" smooth="yes"/>
      <point x="184" y="233"/>
      <point x="181" y="236"/>
      <point x="181" y="242" type="curve" smooth="yes"/>
      <point x="181" y="511" type="line" smooth="yes"/>
      <point x="181" y="596"/>
      <point x="193" y="631"/>
      <point x="193" y="645" type="curve" smooth="yes"/>
      <point x="193" y="651"/>
      <point x="191" y="654"/>
      <point x="186" y="654" type="curve" smooth="yes"/>
      <point x="181" y="654"/>
      <point x="170" y="651"/>
      <point x="162" y="647" type="curve" smooth="yes"/>
      <point x="135" y="631"/>
      <point x="85" y="624"/>
      <point x="53" y="619" type="curve" smooth="yes"/>
      <point x="49" y="618"/>
      <point x="44" y="618"/>
      <point x="41" y="614" type="curve" smooth="yes"/>
      <point x="41" y="611"/>
      <point x="44" y="611"/>
      <point x="51" y="611" type="curve" smooth="yes"/>
      <point x="108" y="607"/>
      <point x="104" y="599"/>
      <point x="104" y="560" type="curve" smooth="yes"/>
      <point x="104" y="31" type="line" smooth="yes"/>
      <point x="104" y="11"/>
      <point x="92" y="9"/>
      <point x="54" y="6" type="curve" smooth="yes"/>
      <point x="41" y="5"/>
      <point x="27" y="4"/>
      <point x="27" y="1" type="curve" smooth="yes"/>
      <point x="27" y="-2"/>
      <point x="38" y="-3"/>
    </contour>
  </outline>
</glyph>
<glyph name="l" format="1">
  <advance width="280"/>
  <unicode hex="006C"/>
  <outline>
    <contour>
      <point x="47" y="-3" type="curve" smooth="yes"/>
      <point x="88" y="-3"/>
      <point x="105" y="2"/>
      <point x="141" y="2" type="curve" smooth="yes"/>
      <point x="177" y="2"/>
      <point x="192" y="-3"/>
      <point x="232" y="-3" type="curve" smooth="yes"/>
      <point x="240" y="-3"/>
      <point x="253" y="-3"/>
      <point x="253" y="1" type="curve" smooth="yes"/>
      <point x="253" y="4"/>
      <point x="241" y="7"/>
      <point x="230" y="8" type="curve"/>
      <point x="201" y="10"/>
      <point x="179" y="13"/>
      <point x="179" y="31" type="curve" smooth="yes"/>
      <point x="179" y="511" type="line" smooth="yes"/>
      <point x="179" y="601"/>
      <point x="186" y="635"/>
      <point x="186" y="647" type="curve" smooth="yes"/>
      <point x="186" y="650"/>
      <point x="184" y="654"/>
      <point x="181" y="654" type="curve" smooth="yes"/>
      <point x="179" y="654"/>
      <point x="177" y="653"/>
      <point x="175" y="652" type="curve" smooth="yes"/>
      <point x="140" y="623"/>
      <point x="103" y="611"/>
      <point x="56" y="609" type="curve" smooth="yes"/>
      <point x="42" y="607"/>
      <point x="39" y="605"/>
      <point x="39" y="602" type="curve" smooth="yes"/>
      <point x="39" y="598"/>
      <point x="42" y="598"/>
      <point x="57" y="595" type="curve" smooth="yes"/>
      <point x="91" y="589"/>
      <point x="103" y="579"/>
      <point x="103" y="548" type="curve" smooth="yes"/>
      <point x="103" y="30" type="line" smooth="yes"/>
      <point x="103" y="11"/>
      <point x="70" y="9"/>
      <point x="50" y="7" type="curve"/>
      <point x="39" y="6"/>
      <point x="27" y="4"/>
      <point x="27" y="1" type="curve" smooth="yes"/>
      <point x="27" y="-3"/>
      <point x="40" y="-3"/>
    </contour>
  </outline>
</glyph>
<glyph name="o" format="1">
  <advance width="705"/>
  <unicode hex="006F"/>
  <outline>
    <contour>
      <point x="333" y="-14" type="curve" smooth="yes"/>
      <point x="524" y="-14"/>
      <point x="656" y="85"/>
      <point x="656" y="229" type="curve" smooth="yes"/>
      <point x="656" y="348"/>
      <point x="524" y="444"/>
      <point x="362" y="444" type="curve" smooth="yes"/>
      <point x="197" y="444"/>
      <point x="49" y="329"/>
      <point x="49" y="201" type="curve" smooth="yes"/>
      <point x="49" y="78"/>
      <point x="170" y="-14"/>
    </contour>
    <contour>
      <point x="365" y="-5" type="curve" smooth="yes"/>
      <point x="230" y="-5"/>
      <point x="137" y="93"/>
      <point x="137" y="227" type="curve" smooth="yes"/>
      <point x="137" y="366"/>
      <point x="202" y="434"/>
      <point x="335" y="434" type="curve" smooth="yes"/>
      <point x="471" y="434"/>
      <point x="568" y="335"/>
      <point x="568" y="202" type="curve" smooth="yes"/>
      <point x="568" y="58"/>
      <point x="506" y="-5"/>
    </contour>
  </outline>
</glyph>
<glyph name="q" format="1">
  <advance width="743"/>
  <unicode hex="0071"/>
  <outline>
    <contour>
      <point x="532" y="-205" type="curve" smooth="yes"/>
      <point x="577" y="-205"/>
      <point x="584" y="-200"/>
      <point x="623" y="-200" type="curve" smooth="yes"/>
      <point x="664" y="-200"/>
      <point x="675" y="-205"/>
      <point x="721" y="-205" type="curve" smooth="yes"/>
      <point x="732" y="-205"/>
      <point x="743" y="-204"/>
      <point x="743" y="-202" type="curve" smooth="yes"/>
      <point x="743" y="-199"/>
      <point x="732" y="-199"/>
      <point x="717" y="-198" type="curve"/>
      <point x="694" y="-196"/>
      <point x="662" y="-196"/>
      <point x="662" y="-184" type="curve" smooth="yes"/>
      <point x="662" y="317" type="line" smooth="yes"/>
      <point x="662" y="377"/>
      <point x="680" y="428"/>
      <point x="680" y="442" type="curve" smooth="yes"/>
      <point x="680" y="447"/>
      <point x="673" y="450"/>
      <point x="665" y="450" type="curve" smooth="yes"/>
      <point x="661" y="450"/>
      <point x="656" y="447"/>
      <point x="653" y="441" type="curve"/>
      <point x="644" y="430"/>
      <point x="635" y="419"/>
      <point x="615" y="419" type="curve" smooth="yes"/>
      <point x="589" y="419"/>
      <point x="518" y="443"/>
      <point x="417" y="443" type="curve" smooth="yes"/>
      <point x="198" y="443"/>
      <point x="49" y="342"/>
      <point x="49" y="191" type="curve" smooth="yes"/>
      <point x="49" y="58"/>
      <point x="186" y="-14"/>
      <point x="363" y="-14" type="curve" smooth="yes"/>
      <point x="446" y="-14"/>
      <point x="536" y="28"/>
      <point x="562" y="45" type="curve" smooth="yes"/>
      <point x="567" y="48"/>
      <point x="571" y="47"/>
      <point x="576" y="47" type="curve" smooth="yes"/>
      <point x="582" y="47"/>
      <point x="585" y="40"/>
      <point x="585" y="15" type="curve" smooth="yes"/>
      <point x="585" y="-186" type="line" smooth="yes"/>
      <point x="585" y="-196"/>
      <point x="559" y="-196"/>
      <point x="536" y="-198" type="curve"/>
      <point x="520" y="-199"/>
      <point x="509" y="-200"/>
      <point x="509" y="-202" type="curve" smooth="yes"/>
      <point x="509" y="-204"/>
      <point x="521" y="-205"/>
    </contour>
    <contour>
      <point x="404" y="15" type="curve" smooth="yes"/>
      <point x="267" y="15"/>
      <point x="137" y="65"/>
      <point x="137" y="220" type="curve" smooth="yes"/>
      <point x="137" y="361"/>
      <point x="254" y="437"/>
      <point x="378" y="437" type="curve" smooth="yes"/>
      <point x="552" y="437"/>
      <point x="579" y="408"/>
      <point x="584" y="308" type="curve" smooth="yes"/>
      <point x="586" y="274"/>
      <point x="586" y="111"/>
      <point x="586" y="65" type="curve"/>
      <point x="556" y="41"/>
      <point x="479" y="15"/>
    </contour>
  </outline>
</glyph>
<glyph name="s" format="1">
  <advance width="456"/>
  <unicode hex="0073"/>
  <outline>
    <contour>
      <point x="201" y="-14" type="curve" smooth="yes"/>
      <point x="326" y="-14"/>
      <point x="411" y="38"/>
      <point x="411" y="114" type="curve" smooth="yes"/>
      <point x="411" y="180"/>
      <point x="358" y="214"/>
      <point x="261" y="256" type="curve" smooth="yes"/>
      <point x="157" y="299"/>
      <point x="131" y="323"/>
      <point x="131" y="364" type="curve" smooth="yes"/>
      <point x="131" y="404"/>
      <point x="168" y="434"/>
      <point x="245" y="434" type="curve" smooth="yes"/>
      <point x="319" y="434"/>
      <point x="344" y="415"/>
      <point x="366" y="348" type="curve" smooth="yes"/>
      <point x="368" y="343"/>
      <point x="378" y="339"/>
      <point x="386" y="339" type="curve" smooth="yes"/>
      <point x="392" y="339"/>
      <point x="397" y="341"/>
      <point x="397" y="346" type="curve" smooth="yes"/>
      <point x="397" y="374"/>
      <point x="387" y="410"/>
      <point x="373" y="425" type="curve"/>
      <point x="356" y="438"/>
      <point x="313" y="444"/>
      <point x="253" y="444" type="curve" smooth="yes"/>
      <point x="126" y="444"/>
      <point x="62" y="390"/>
      <point x="62" y="323" type="curve" smooth="yes"/>
      <point x="62" y="269"/>
      <point x="100" y="233"/>
      <point x="208" y="188" type="curve" smooth="yes"/>
      <point x="304" y="147"/>
      <point x="334" y="125"/>
      <point x="334" y="81" type="curve" smooth="yes"/>
      <point x="334" y="34"/>
      <point x="289" y="-6"/>
      <point x="210" y="-6" type="curve" smooth="yes"/>
      <point x="125" y="-6"/>
      <point x="77" y="23"/>
      <point x="61" y="94" type="curve"/>
      <point x="58" y="109"/>
      <point x="53" y="111"/>
      <point x="48" y="111" type="curve" smooth="yes"/>
      <point x="41" y="111"/>
      <point x="37" y="108"/>
      <point x="37" y="95" type="curve"/>
      <point x="38" y="79"/>
      <point x="42" y="36"/>
      <point x="52" y="22" type="curve"/>
      <point x="88" y="-1"/>
      <point x="142" y="-14"/>
    </contour>
  </outline>
</glyph>
<glyph name="t" format="1">
  <advance width="446"/>
  <unicode hex="0074"/>
  <outline>
    <contour>
      <point x="268" y="-14" type="curve" smooth="yes"/>
      <point x="355" y="-14"/>
      <point x="435" y="41"/>
      <point x="435" y="49" type="curve" smooth="yes"/>
      <point x="435" y="52"/>
      <point x="434" y="53"/>
      <point x="430" y="53" type="curve" smooth="yes"/>
      <point x="428" y="53"/>
      <point x="425" y="51"/>
      <point x="423" y="50" type="curve" smooth="yes"/>
      <point x="373" y="20"/>
      <point x="339" y="11"/>
      <point x="304" y="11" type="curve" smooth="yes"/>
      <point x="232" y="11"/>
      <point x="196" y="49"/>
      <point x="196" y="111" type="curve" smooth="yes"/>
      <point x="196" y="417" type="line" smooth="yes"/>
      <point x="196" y="422"/>
      <point x="202" y="422"/>
      <point x="240" y="422" type="curve" smooth="yes"/>
      <point x="418" y="422" type="line" smooth="yes"/>
      <point x="425" y="422"/>
      <point x="432" y="424"/>
      <point x="432" y="426" type="curve" smooth="yes"/>
      <point x="432" y="428"/>
      <point x="425" y="430"/>
      <point x="418" y="430" type="curve" smooth="yes"/>
      <point x="222" y="430" type="line" smooth="yes"/>
      <point x="203" y="430"/>
      <point x="193" y="434"/>
      <point x="195" y="449" type="curve" smooth="yes"/>
      <point x="200" y="494" type="line" smooth="yes"/>
      <point x="202" y="503"/>
      <point x="199" y="505"/>
      <point x="192" y="505" type="curve" smooth="yes"/>
      <point x="187" y="505"/>
      <point x="181" y="501"/>
      <point x="176" y="494" type="curve" smooth="yes"/>
      <point x="150" y="456"/>
      <point x="118" y="439"/>
      <point x="68" y="438" type="curve" smooth="yes"/>
      <point x="55" y="437"/>
      <point x="49" y="432"/>
      <point x="49" y="428" type="curve" smooth="yes"/>
      <point x="49" y="422"/>
      <point x="56" y="422"/>
      <point x="66" y="422" type="curve" smooth="yes"/>
      <point x="74" y="422" type="line"/>
      <point x="115" y="422"/>
      <point x="119" y="419"/>
      <point x="119" y="403" type="curve" smooth="yes"/>
      <point x="119" y="110" type="line" smooth="yes"/>
      <point x="119" y="28"/>
      <point x="168" y="-14"/>
    </contour>
  </outline>
</glyph>
<glyph name="u" format="1">
  <advance width="741"/>
  <unicode hex="0075"/>
  <outline>
    <contour>
      <point x="562" y="-19" type="curve" smooth="yes"/>
      <point x="569" y="-19"/>
      <point x="580" y="-15"/>
      <point x="584" y="-13" type="curve"/>
      <point x="616" y="-1"/>
      <point x="655" y="15"/>
      <point x="712" y="23" type="curve" smooth="yes"/>
      <point x="721" y="24"/>
      <point x="727" y="24"/>
      <point x="727" y="26" type="curve" smooth="yes"/>
      <point x="727" y="28"/>
      <point x="719" y="28"/>
      <point x="711" y="28" type="curve" smooth="yes"/>
      <point x="700" y="28"/>
      <point x="671" y="27"/>
      <point x="660" y="27" type="curve" smooth="yes"/>
      <point x="645" y="27"/>
      <point x="640" y="40"/>
      <point x="640" y="68" type="curve" smooth="yes"/>
      <point x="640" y="356" type="line" smooth="yes"/>
      <point x="640" y="372"/>
      <point x="645" y="418"/>
      <point x="648" y="425" type="curve" smooth="yes"/>
      <point x="649" y="429"/>
      <point x="650" y="432"/>
      <point x="650" y="434" type="curve" smooth="yes"/>
      <point x="650" y="441"/>
      <point x="643" y="445"/>
      <point x="636" y="445" type="curve" smooth="yes"/>
      <point x="632" y="445"/>
      <point x="627" y="444"/>
      <point x="623" y="443" type="curve"/>
      <point x="579" y="433"/>
      <point x="550" y="427"/>
      <point x="487" y="428" type="curve" smooth="yes"/>
      <point x="476" y="428"/>
      <point x="465" y="427"/>
      <point x="465" y="425" type="curve" smooth="yes"/>
      <point x="465" y="422"/>
      <point x="476" y="422"/>
      <point x="489" y="422" type="curve" smooth="yes"/>
      <point x="551" y="422"/>
      <point x="564" y="418"/>
      <point x="564" y="386" type="curve" smooth="yes"/>
      <point x="564" y="118" type="line" smooth="yes"/>
      <point x="564" y="95"/>
      <point x="554" y="72"/>
      <point x="489" y="51" type="curve" smooth="yes"/>
      <point x="453" y="41"/>
      <point x="404" y="32"/>
      <point x="335" y="32" type="curve" smooth="yes"/>
      <point x="260" y="32"/>
      <point x="186" y="71"/>
      <point x="186" y="128" type="curve" smooth="yes"/>
      <point x="186" y="353" type="line" smooth="yes"/>
      <point x="186" y="383"/>
      <point x="189" y="399"/>
      <point x="195" y="430" type="curve" smooth="yes"/>
      <point x="197" y="441"/>
      <point x="189" y="444"/>
      <point x="180" y="444" type="curve" smooth="yes"/>
      <point x="177" y="444"/>
      <point x="176" y="444"/>
      <point x="171" y="443" type="curve" smooth="yes"/>
      <point x="127" y="434"/>
      <point x="107" y="431"/>
      <point x="57" y="429" type="curve" smooth="yes"/>
      <point x="48" y="429"/>
      <point x="41" y="428"/>
      <point x="41" y="426" type="curve" smooth="yes"/>
      <point x="41" y="424"/>
      <point x="48" y="423"/>
      <point x="56" y="422" type="curve"/>
      <point x="103" y="419"/>
      <point x="110" y="408"/>
      <point x="110" y="372" type="curve" smooth="yes"/>
      <point x="110" y="105" type="line" smooth="yes"/>
      <point x="110" y="27"/>
      <point x="189" y="-14"/>
      <point x="294" y="-14" type="curve" smooth="yes"/>
      <point x="393" y="-14"/>
      <point x="476" y="12"/>
      <point x="559" y="77" type="curve"/>
      <point x="559" y="55"/>
      <point x="559" y="53"/>
      <point x="559" y="51" type="curve" smooth="yes"/>
      <point x="559" y="34"/>
      <point x="554" y="2"/>
      <point x="554" y="-11" type="curve" smooth="yes"/>
      <point x="554" y="-16"/>
      <point x="557" y="-19"/>
    </contour>
  </outline>
</glyph>
<glyph name="v" format="1">
  <advance width="620"/>
  <unicode hex="0076"/>
  <outline>
    <contour>
      <point x="294" y="-21" type="curve"/>
      <point x="325" y="-21" type="line"/>
      <point x="518" y="364" type="line"/>
      <point x="543" y="414"/>
      <point x="571" y="426"/>
      <point x="596" y="429" type="curve" smooth="yes"/>
      <point x="617" y="432"/>
      <point x="627" y="433"/>
      <point x="627" y="434" type="curve" smooth="yes"/>
      <point x="627" y="436"/>
      <point x="614" y="436"/>
      <point x="600" y="436" type="curve" smooth="yes"/>
      <point x="575" y="436"/>
      <point x="569" y="435"/>
      <point x="522" y="435" type="curve" smooth="yes"/>
      <point x="476" y="435"/>
      <point x="465" y="436"/>
      <point x="445" y="436" type="curve" smooth="yes"/>
      <point x="433" y="436"/>
      <point x="418" y="436"/>
      <point x="418" y="434" type="curve" smooth="yes"/>
      <point x="418" y="433"/>
      <point x="427" y="432"/>
      <point x="452" y="431" type="curve" smooth="yes"/>
      <point x="489" y="429"/>
      <point x="507" y="415"/>
      <point x="507" y="390" type="curve" smooth="yes"/>
      <point x="507" y="378"/>
      <point x="503" y="361"/>
      <point x="496" y="348" type="curve" smooth="yes"/>
      <point x="342" y="45" type="line"/>
      <point x="341" y="44"/>
      <point x="339" y="44"/>
      <point x="338" y="45" type="curve"/>
      <point x="187" y="359" type="line" smooth="yes"/>
      <point x="181" y="368"/>
      <point x="179" y="379"/>
      <point x="179" y="388" type="curve" smooth="yes"/>
      <point x="179" y="406"/>
      <point x="191" y="426"/>
      <point x="216" y="429" type="curve" smooth="yes"/>
      <point x="233" y="431"/>
      <point x="250" y="431"/>
      <point x="250" y="434" type="curve" smooth="yes"/>
      <point x="250" y="436"/>
      <point x="233" y="436"/>
      <point x="224" y="436" type="curve" smooth="yes"/>
      <point x="174" y="436"/>
      <point x="172" y="435"/>
      <point x="127" y="435" type="curve" smooth="yes"/>
      <point x="82" y="435"/>
      <point x="83" y="436"/>
      <point x="33" y="436" type="curve" smooth="yes"/>
      <point x="24" y="436"/>
      <point x="7" y="436"/>
      <point x="7" y="434" type="curve" smooth="yes"/>
      <point x="7" y="431"/>
      <point x="17" y="428"/>
      <point x="32" y="426" type="curve" smooth="yes"/>
      <point x="59" y="421"/>
      <point x="74" y="416"/>
      <point x="87" y="388" type="curve" smooth="yes"/>
      <point x="136" y="302"/>
      <point x="191" y="184"/>
      <point x="233" y="95" type="curve" smooth="yes"/>
      <point x="244" y="71"/>
      <point x="257" y="44"/>
      <point x="269" y="20" type="curve" smooth="yes"/>
      <point x="274" y="10"/>
      <point x="288" y="-35"/>
    </contour>
  </outline>
</glyph>
<glyph name="x" format="1">
  <advance width="610"/>
  <unicode hex="0078"/>
  <outline>
    <contour>
      <point x="42" y="-4" type="curve" smooth="yes"/>
      <point x="68" y="-4"/>
      <point x="84" y="1"/>
      <point x="136" y="1" type="curve" smooth="yes"/>
      <point x="159" y="1"/>
      <point x="175" y="-1"/>
      <point x="190" y="-3" type="curve" smooth="yes"/>
      <point x="197" y="-4"/>
      <point x="222" y="-3"/>
      <point x="222" y="-1" type="curve" smooth="yes"/>
      <point x="222" y="3"/>
      <point x="204" y="5"/>
      <point x="190" y="5" type="curve"/>
      <point x="158" y="8"/>
      <point x="141" y="8"/>
      <point x="140" y="17" type="curve" smooth="yes"/>
      <point x="140" y="22"/>
      <point x="145" y="30"/>
      <point x="153" y="42" type="curve" smooth="yes"/>
      <point x="281" y="197" type="line" smooth="yes"/>
      <point x="283" y="198"/>
      <point x="288" y="198"/>
      <point x="290" y="197" type="curve" smooth="yes"/>
      <point x="399" y="55" type="line" smooth="yes"/>
      <point x="410" y="41"/>
      <point x="417" y="32"/>
      <point x="417" y="23" type="curve" smooth="yes"/>
      <point x="417" y="15"/>
      <point x="406" y="5"/>
      <point x="368" y="4" type="curve" smooth="yes"/>
      <point x="348" y="3"/>
      <point x="335" y="4"/>
      <point x="335" y="-1" type="curve" smooth="yes"/>
      <point x="335" y="-1"/>
      <point x="343" y="-3"/>
      <point x="366" y="-3" type="curve" smooth="yes"/>
      <point x="397" y="-3"/>
      <point x="432" y="-3"/>
      <point x="464" y="-3" type="curve" smooth="yes"/>
      <point x="531" y="-3"/>
      <point x="521" y="-4"/>
      <point x="576" y="-4" type="curve" smooth="yes"/>
      <point x="587" y="-4"/>
      <point x="603" y="-4"/>
      <point x="603" y="-2" type="curve" smooth="yes"/>
      <point x="603" y="1"/>
      <point x="590" y="-1"/>
      <point x="574" y="1" type="curve" smooth="yes"/>
      <point x="556" y="3"/>
      <point x="535" y="11"/>
      <point x="518" y="29" type="curve" smooth="yes"/>
      <point x="350" y="244" type="line" smooth="yes"/>
      <point x="346" y="249"/>
      <point x="346" y="254"/>
      <point x="348" y="257" type="curve" smooth="yes"/>
      <point x="455" y="383" type="line" smooth="yes"/>
      <point x="483" y="415"/>
      <point x="499" y="426"/>
      <point x="544" y="426" type="curve"/>
      <point x="559" y="426"/>
      <point x="575" y="428"/>
      <point x="575" y="432" type="curve" smooth="yes"/>
      <point x="575" y="435"/>
      <point x="559" y="435"/>
      <point x="549" y="435" type="curve" smooth="yes"/>
      <point x="526" y="435"/>
      <point x="520" y="433"/>
      <point x="468" y="433" type="curve" smooth="yes"/>
      <point x="446" y="433"/>
      <point x="425" y="434"/>
      <point x="408" y="434" type="curve" smooth="yes"/>
      <point x="401" y="434"/>
      <point x="377" y="435"/>
      <point x="377" y="431" type="curve" smooth="yes"/>
      <point x="377" y="427"/>
      <point x="395" y="428"/>
      <point x="408" y="427" type="curve"/>
      <point x="442" y="426"/>
      <point x="457" y="423"/>
      <point x="458" y="413" type="curve" smooth="yes"/>
      <point x="458" y="408"/>
      <point x="453" y="401"/>
      <point x="444" y="389" type="curve"/>
      <point x="338" y="263" type="line" smooth="yes"/>
      <point x="334" y="258"/>
      <point x="331" y="258"/>
      <point x="326" y="263" type="curve" smooth="yes"/>
      <point x="230" y="377" type="line"/>
      <point x="215" y="393"/>
      <point x="210" y="405"/>
      <point x="210" y="411" type="curve" smooth="yes"/>
      <point x="210" y="422"/>
      <point x="220" y="427"/>
      <point x="244" y="429" type="curve" smooth="yes"/>
      <point x="256" y="430"/>
      <point x="267" y="430"/>
      <point x="267" y="432" type="curve" smooth="yes"/>
      <point x="267" y="434"/>
      <point x="243" y="434"/>
      <point x="237" y="434" type="curve" smooth="yes"/>
      <point x="206" y="434"/>
      <point x="207" y="434"/>
      <point x="175" y="434" type="curve" smooth="yes"/>
      <point x="110" y="434"/>
      <point x="112" y="435"/>
      <point x="60" y="435" type="curve" smooth="yes"/>
      <point x="54" y="435"/>
      <point x="30" y="435"/>
      <point x="30" y="432" type="curve" smooth="yes"/>
      <point x="30" y="429"/>
      <point x="46" y="429"/>
      <point x="59" y="427" type="curve" smooth="yes"/>
      <point x="84" y="423"/>
      <point x="97" y="413"/>
      <point x="122" y="386" type="curve" smooth="yes"/>
      <point x="267" y="216" type="line" smooth="yes"/>
      <point x="274" y="208"/>
      <point x="276" y="203"/>
      <point x="264" y="191" type="curve"/>
      <point x="147" y="56" type="line" smooth="yes"/>
      <point x="109" y="15"/>
      <point x="92" y="11"/>
      <point x="47" y="4" type="curve" smooth="yes"/>
      <point x="31" y="3"/>
      <point x="14" y="2"/>
      <point x="14" y="-2" type="curve" smooth="yes"/>
      <point x="14" y="-4"/>
      <point x="31" y="-4"/>
    </contour>
  </outline>
</glyph>
<glyph name="y" format="1">
  <advance width="618"/>
  <unicode hex="0079"/>
  <outline>
    <contour>
      <point x="176" y="-213" type="curve" smooth="yes"/>
      <point x="206" y="-213"/>
      <point x="219" y="-197"/>
      <point x="234" y="-169" type="curve"/>
      <point x="514" y="364" type="line"/>
      <point x="540" y="414"/>
      <point x="569" y="426"/>
      <point x="594" y="429" type="curve"/>
      <point x="618" y="432"/>
      <point x="625" y="433"/>
      <point x="625" y="434" type="curve" smooth="yes"/>
      <point x="625" y="436"/>
      <point x="614" y="436"/>
      <point x="598" y="436" type="curve" smooth="yes"/>
      <point x="575" y="436"/>
      <point x="566" y="435"/>
      <point x="520" y="435" type="curve" smooth="yes"/>
      <point x="475" y="435"/>
      <point x="460" y="436"/>
      <point x="442" y="436" type="curve" smooth="yes"/>
      <point x="429" y="436"/>
      <point x="415" y="437"/>
      <point x="415" y="435" type="curve" smooth="yes"/>
      <point x="415" y="434"/>
      <point x="417" y="437"/>
      <point x="445" y="435" type="curve" smooth="yes"/>
      <point x="486" y="433"/>
      <point x="504" y="418"/>
      <point x="504" y="393" type="curve" smooth="yes"/>
      <point x="504" y="379"/>
      <point x="500" y="363"/>
      <point x="493" y="348" type="curve"/>
      <point x="336" y="42" type="line" smooth="yes"/>
      <point x="335" y="41"/>
      <point x="336" y="42"/>
      <point x="335" y="42" type="curve" smooth="yes"/>
      <point x="335" y="42"/>
      <point x="335" y="41"/>
      <point x="334" y="42" type="curve" smooth="yes"/>
      <point x="185" y="357" type="line" smooth="yes"/>
      <point x="180" y="368"/>
      <point x="180" y="376"/>
      <point x="180" y="386" type="curve" smooth="yes"/>
      <point x="180" y="404"/>
      <point x="192" y="429"/>
      <point x="218" y="432" type="curve" smooth="yes"/>
      <point x="234" y="435"/>
      <point x="247" y="432"/>
      <point x="247" y="435" type="curve" smooth="yes"/>
      <point x="247" y="437"/>
      <point x="230" y="436"/>
      <point x="221" y="436" type="curve" smooth="yes"/>
      <point x="172" y="436"/>
      <point x="170" y="435"/>
      <point x="125" y="435" type="curve" smooth="yes"/>
      <point x="80" y="435"/>
      <point x="80" y="436"/>
      <point x="31" y="436" type="curve" smooth="yes"/>
      <point x="22" y="436"/>
      <point x="5" y="436"/>
      <point x="5" y="434" type="curve" smooth="yes"/>
      <point x="5" y="431"/>
      <point x="12" y="429"/>
      <point x="27" y="427" type="curve"/>
      <point x="50" y="423"/>
      <point x="75" y="412"/>
      <point x="86" y="388" type="curve" smooth="yes"/>
      <point x="285" y="-7" type="line" smooth="yes"/>
      <point x="290" y="-16"/>
      <point x="292" y="-25"/>
      <point x="292" y="-35" type="curve" smooth="yes"/>
      <point x="292" y="-44"/>
      <point x="290" y="-52"/>
      <point x="286" y="-59" type="curve"/>
      <point x="267" y="-88"/>
      <point x="264" y="-85"/>
      <point x="240" y="-123" type="curve" smooth="yes"/>
      <point x="235" y="-130"/>
      <point x="224" y="-134"/>
      <point x="214" y="-134" type="curve" smooth="yes"/>
      <point x="201" y="-134"/>
      <point x="184" y="-125"/>
      <point x="165" y="-125" type="curve" smooth="yes"/>
      <point x="139" y="-125"/>
      <point x="124" y="-147"/>
      <point x="124" y="-171" type="curve" smooth="yes"/>
      <point x="124" y="-202"/>
      <point x="144" y="-213"/>
    </contour>
  </outline>
</glyph>
<glyph name="braceleft" format="1">
  <advance width="503"/>
  <unicode hex="007B"/>
  <outline>
    <contour>
      <point x="448" y="-153" type="curve" smooth="yes"/>
      <point x="461" y="-153"/>
      <point x="473" y="-153"/>
      <point x="473" y="-151" type="curve" smooth="yes"/>
      <point x="473" y="-146"/>
      <point x="447" y="-146"/>
      <point x="430" y="-144" type="curve" smooth="yes"/>
      <point x="321" y="-133"/>
      <point x="262" y="-137"/>
      <point x="262" y="-25" type="curve" smooth="yes"/>
      <point x="262" y="43"/>
      <point x="281" y="90"/>
      <point x="281" y="148" type="curve" smooth="yes"/>
      <point x="281" y="214"/>
      <point x="205" y="267"/>
      <point x="139" y="279" type="curve"/>
      <point x="137" y="280"/>
      <point x="133" y="281"/>
      <point x="138" y="283" type="curve"/>
      <point x="194" y="288"/>
      <point x="281" y="348"/>
      <point x="281" y="414" type="curve" smooth="yes"/>
      <point x="281" y="472"/>
      <point x="262" y="519"/>
      <point x="262" y="587" type="curve" smooth="yes"/>
      <point x="262" y="698"/>
      <point x="324" y="696"/>
      <point x="432" y="705" type="curve" smooth="yes"/>
      <point x="449" y="707"/>
      <point x="474" y="707"/>
      <point x="474" y="712" type="curve" smooth="yes"/>
      <point x="474" y="714"/>
      <point x="462" y="715"/>
      <point x="442" y="714" type="curve" smooth="yes"/>
      <point x="317" y="711"/>
      <point x="174" y="676"/>
      <point x="174" y="582" type="curve" smooth="yes"/>
      <point x="174" y="512"/>
      <point x="192" y="466"/>
      <point x="192" y="404" type="curve" smooth="yes"/>
      <point x="192" y="326"/>
      <point x="181" y="295"/>
      <point x="95" y="289" type="curve" smooth="yes"/>
      <point x="78" y="287"/>
      <point x="70" y="284"/>
      <point x="70" y="283" type="curve" smooth="yes"/>
      <point x="70" y="282"/>
      <point x="80" y="280"/>
      <point x="93" y="277" type="curve" smooth="yes"/>
      <point x="178" y="258"/>
      <point x="192" y="253"/>
      <point x="192" y="158" type="curve" smooth="yes"/>
      <point x="192" y="96"/>
      <point x="174" y="50"/>
      <point x="174" y="-20" type="curve" smooth="yes"/>
      <point x="174" y="-114"/>
      <point x="315" y="-148"/>
    </contour>
  </outline>
</glyph>
